<svg id="svg" version="1.1" xmlns="http://www.w3.org/2000/svg" xmlns:xlink="http://www.w3.org/1999/xlink" width="400" height="266.3636363636364" viewBox="0, 0, 400,266.3636363636364"><g id="svgg"><path id="path0" d="M261.959 0.329 C 261.959 0.510,261.136 2.339,260.131 4.393 C 258.204 8.329,255.946 13.038,255.540 13.970 C 255.407 14.275,255.183 14.704,255.044 14.923 C 254.904 15.143,254.289 16.402,253.677 17.722 C 253.065 19.041,251.632 22.039,250.492 24.384 C 248.517 28.447,246.881 31.870,244.380 37.175 C 243.758 38.494,242.378 41.372,241.313 43.571 C 240.249 45.769,238.860 48.648,238.226 49.967 C 237.593 51.286,236.905 52.569,236.697 52.817 C 236.291 53.303,234.160 57.297,233.030 59.694 C 232.649 60.500,231.927 62.029,231.425 63.092 C 230.924 64.155,230.513 65.086,230.513 65.161 C 230.513 65.380,228.152 70.372,227.428 71.686 C 226.795 72.832,226.208 74.031,224.214 78.242 C 223.721 79.284,223.318 80.273,223.318 80.441 C 223.318 80.609,223.212 80.746,223.082 80.746 C 222.952 80.746,222.642 81.376,222.392 82.145 C 221.877 83.733,221.662 84.233,219.681 88.435 C 218.896 90.099,218.254 91.613,218.254 91.800 C 218.254 92.901,219.619 92.868,171.245 92.937 C 145.874 92.973,124.967 93.059,124.783 93.129 C 124.347 93.294,124.289 174.818,124.725 175.632 C 124.989 176.125,125.266 176.140,131.321 175.991 C 137.760 175.832,173.222 176.314,175.283 176.588 C 176.506 176.750,176.717 177.173,176.069 178.155 C 175.878 178.444,175.370 179.580,174.940 180.680 C 174.509 181.779,173.866 183.218,173.509 183.877 C 172.470 185.797,169.753 191.357,169.753 191.562 C 169.753 191.665,169.396 192.407,168.959 193.210 C 168.521 194.013,168.043 194.943,167.897 195.277 C 167.241 196.766,165.170 201.132,164.815 201.773 C 164.600 202.162,164.424 202.707,164.424 202.983 C 164.424 203.260,163.464 205.425,162.292 207.796 C 161.119 210.166,160.160 212.155,160.160 212.216 C 160.160 212.277,159.218 214.290,158.066 216.690 C 156.915 219.089,155.551 221.952,155.035 223.051 C 154.519 224.151,152.927 227.448,151.498 230.380 C 146.276 241.091,142.276 249.431,141.528 251.166 C 141.213 251.899,140.842 252.678,140.704 252.898 C 140.101 253.862,134.730 265.054,134.455 265.920 L 134.275 266.489 267.137 266.489 L 400.000 266.489 400.000 133.245 L 400.000 0.000 330.979 0.000 C 276.367 0.000,261.959 0.069,261.959 0.329 M267.854 99.108 C 268.333 99.700,268.355 100.548,268.361 119.217 C 268.376 167.216,268.357 169.865,268.003 170.219 C 267.635 170.587,131.649 170.765,130.191 170.399 C 129.778 170.295,129.370 169.944,129.228 169.569 C 128.817 168.489,128.912 100.218,129.325 99.400 L 129.662 98.734 137.516 98.601 C 141.836 98.528,172.816 98.473,206.361 98.479 L 267.353 98.489 267.854 99.108 M197.002 109.444 C 197.258 109.511,197.678 109.511,197.935 109.444 C 198.191 109.377,197.981 109.322,197.468 109.322 C 196.955 109.322,196.746 109.377,197.002 109.444 M233.777 109.459 C 235.207 109.507,237.545 109.507,238.974 109.459 C 240.403 109.411,239.234 109.372,236.376 109.372 C 233.518 109.372,232.348 109.411,233.777 109.459 M258.257 109.327 C 258.322 109.364,259.272 110.233,260.367 111.259 L 262.358 113.125 260.500 111.193 C 259.478 110.130,258.529 109.260,258.390 109.260 C 258.252 109.260,258.192 109.290,258.257 109.327 M166.689 109.684 C 167.893 109.874,172.438 109.939,171.981 109.759 C 171.708 109.652,170.286 109.572,168.821 109.582 C 167.355 109.592,166.396 109.638,166.689 109.684 M179.884 109.993 C 179.887 110.305,179.955 110.355,180.089 110.144 C 180.200 109.970,180.887 109.782,181.617 109.725 L 182.945 109.623 181.412 109.575 C 180.111 109.534,179.881 109.597,179.884 109.993 M184.211 109.711 C 184.467 109.778,184.887 109.778,185.143 109.711 C 185.400 109.644,185.190 109.589,184.677 109.589 C 184.164 109.589,183.954 109.644,184.211 109.711 M139.973 109.992 C 141.549 110.039,144.127 110.039,145.703 109.992 C 147.278 109.945,145.989 109.907,142.838 109.907 C 139.687 109.907,138.398 109.945,139.973 109.992 M158.907 109.992 C 160.197 110.041,162.235 110.041,163.437 109.992 C 164.639 109.942,163.584 109.902,161.093 109.903 C 158.601 109.903,157.617 109.943,158.907 109.992 M136.588 110.307 C 136.504 110.443,136.748 110.893,137.131 111.306 L 137.827 112.059 137.272 111.294 C 136.966 110.874,136.782 110.424,136.861 110.295 C 136.941 110.166,136.947 110.060,136.874 110.060 C 136.800 110.060,136.672 110.171,136.588 110.307 M174.811 112.267 C 176.054 113.545,177.112 114.590,177.163 114.590 C 177.380 114.590,175.890 113.009,174.284 111.534 C 172.874 110.239,172.972 110.376,174.811 112.267 M180.813 111.659 C 181.385 112.245,181.914 112.725,181.987 112.725 C 182.060 112.725,181.652 112.245,181.079 111.659 C 180.507 111.073,179.978 110.593,179.905 110.593 C 179.832 110.593,180.240 111.073,180.813 111.659 M182.489 113.125 C 182.641 113.418,183.166 114.017,183.655 114.456 L 184.544 115.255 183.612 114.190 C 183.099 113.604,182.575 113.005,182.446 112.858 C 182.318 112.712,182.338 112.831,182.489 113.125 M227.182 114.552 C 227.915 115.329,228.874 116.215,229.314 116.520 C 230.234 117.158,230.208 117.131,227.715 114.848 C 225.993 113.270,225.952 113.247,227.182 114.552 M264.091 114.724 C 264.588 115.237,265.055 115.656,265.128 115.656 C 265.201 115.656,264.854 115.237,264.357 114.724 C 263.860 114.211,263.393 113.791,263.320 113.791 C 263.247 113.791,263.593 114.211,264.091 114.724 M220.120 114.131 C 220.120 114.171,221.049 115.100,222.185 116.196 L 224.250 118.188 222.259 116.123 C 220.408 114.204,220.120 113.936,220.120 114.131 M142.560 116.522 C 143.214 117.219,143.784 117.788,143.826 117.788 C 144.026 117.788,143.815 117.549,142.638 116.445 L 141.372 115.256 142.560 116.522 M186.695 117.280 C 187.124 117.807,187.529 118.193,187.595 118.138 C 187.660 118.083,187.309 117.652,186.814 117.180 L 185.915 116.322 186.695 117.280 M144.359 118.868 C 144.442 119.520,144.554 120.103,144.607 120.164 C 144.824 120.414,144.677 118.425,144.451 118.068 C 144.293 117.819,144.261 118.101,144.359 118.868 M256.417 119.051 C 257.400 119.103,259.079 119.103,260.148 119.052 C 261.217 119.001,260.413 118.960,258.361 118.959 C 256.309 118.959,255.434 119.000,256.417 119.051 M263.894 119.045 C 264.299 119.107,264.899 119.105,265.227 119.042 C 265.555 118.978,265.223 118.928,264.490 118.930 C 263.757 118.932,263.489 118.984,263.894 119.045 M159.697 119.312 C 160.102 119.373,160.702 119.371,161.030 119.308 C 161.357 119.245,161.026 119.195,160.293 119.197 C 159.560 119.199,159.292 119.251,159.697 119.312 M181.807 119.920 C 181.807 120.433,181.862 120.643,181.929 120.386 C 181.996 120.130,181.996 119.710,181.929 119.454 C 181.862 119.197,181.807 119.407,181.807 119.920 M203.945 119.320 C 205.529 119.367,208.047 119.367,209.541 119.319 C 211.036 119.272,209.740 119.233,206.662 119.233 C 203.584 119.234,202.362 119.272,203.945 119.320 M243.152 119.778 C 242.915 120.140,242.783 120.590,242.859 120.778 C 242.945 120.992,243.004 120.945,243.017 120.653 C 243.029 120.396,243.278 119.947,243.571 119.654 C 243.864 119.360,243.987 119.121,243.844 119.121 C 243.700 119.121,243.389 119.417,243.152 119.778 M210.361 127.848 C 210.265 128.251,210.060 128.761,209.905 128.981 C 209.654 129.336,209.669 129.336,210.041 128.981 C 210.444 128.596,210.943 127.115,210.670 127.115 C 210.596 127.115,210.458 127.445,210.361 127.848 M167.000 128.828 C 166.876 129.150,166.193 129.247,163.569 129.314 L 160.293 129.398 163.525 129.456 C 166.596 129.511,167.925 129.196,167.293 128.563 C 167.217 128.487,167.085 128.606,167.000 128.828 M154.796 129.314 C 155.091 129.690,155.528 129.770,157.061 129.728 L 158.961 129.676 157.106 129.581 C 156.087 129.529,155.067 129.343,154.841 129.167 C 154.481 128.887,154.475 128.905,154.796 129.314 M215.736 133.763 C 215.282 134.264,215.309 134.324,216.533 135.562 L 217.800 136.842 216.671 135.557 C 215.586 134.321,215.560 134.251,216.007 133.758 C 216.263 133.476,216.412 133.245,216.338 133.245 C 216.265 133.245,215.994 133.478,215.736 133.763 M158.372 139.305 C 159.368 139.357,160.927 139.356,161.837 139.304 C 162.746 139.252,161.932 139.210,160.027 139.211 C 158.121 139.211,157.377 139.254,158.372 139.305 M163.826 140.040 C 163.896 140.406,163.999 140.706,164.055 140.706 C 164.111 140.706,164.157 140.406,164.157 140.040 C 164.157 139.674,164.054 139.374,163.928 139.374 C 163.801 139.374,163.755 139.674,163.826 140.040 M223.318 148.285 C 223.318 148.643,223.416 148.997,223.536 149.071 C 223.656 149.145,223.702 148.852,223.639 148.420 C 223.499 147.468,223.318 147.392,223.318 148.285 M256.171 148.631 C 256.871 148.686,257.951 148.685,258.569 148.629 C 259.187 148.573,258.614 148.528,257.295 148.529 C 255.976 148.530,255.470 148.576,256.171 148.631 M237.242 148.885 C 237.498 148.952,237.918 148.952,238.175 148.885 C 238.431 148.818,238.221 148.763,237.708 148.763 C 237.195 148.763,236.985 148.818,237.242 148.885 M239.107 148.885 C 239.364 148.952,239.783 148.952,240.040 148.885 C 240.296 148.818,240.087 148.763,239.574 148.763 C 239.061 148.763,238.851 148.818,239.107 148.885 M259.989 149.367 C 260.209 150.347,260.361 150.560,260.356 149.878 C 260.353 149.597,260.230 149.187,260.081 148.967 C 259.884 148.675,259.859 148.783,259.989 149.367 M228.648 154.370 C 228.648 154.411,229.577 155.340,230.713 156.436 L 232.778 158.428 230.786 156.362 C 228.936 154.444,228.648 154.176,228.648 154.370 M159.470 157.628 C 159.268 158.432,159.486 159.095,159.952 159.090 C 160.207 159.087,160.199 159.026,159.921 158.850 C 159.668 158.690,159.602 158.352,159.715 157.788 C 159.912 156.805,159.710 156.672,159.470 157.628 M177.550 158.561 C 177.642 158.900,178.524 158.962,183.366 158.969 L 189.074 158.978 183.490 158.897 C 179.456 158.839,177.841 158.725,177.674 158.489 C 177.505 158.251,177.471 158.271,177.550 158.561 M213.058 158.561 C 212.320 158.749,212.310 158.767,212.925 158.792 C 213.291 158.807,213.771 158.703,213.991 158.561 C 214.444 158.268,214.210 158.268,213.058 158.561 M244.454 158.494 C 246.918 158.538,250.876 158.538,253.248 158.494 C 255.621 158.450,253.604 158.414,248.767 158.414 C 243.931 158.414,241.990 158.450,244.454 158.494 M205.263 158.759 C 206.546 158.808,208.644 158.808,209.927 158.759 C 211.209 158.711,210.160 158.671,207.595 158.671 C 205.030 158.671,203.981 158.711,205.263 158.759 M135.177 159.011 C 135.433 159.078,135.853 159.078,136.109 159.011 C 136.366 158.944,136.156 158.889,135.643 158.889 C 135.130 158.889,134.920 158.944,135.177 159.011 M141.972 159.024 C 142.742 159.078,144.001 159.078,144.770 159.024 C 145.540 158.970,144.910 158.926,143.371 158.926 C 141.832 158.926,141.203 158.970,141.972 159.024 M169.159 159.021 C 169.638 159.080,170.357 159.079,170.758 159.018 C 171.158 158.957,170.766 158.909,169.887 158.910 C 169.007 158.912,168.680 158.961,169.159 159.021 " stroke="none" fill="#fbb933" fill-rule="evenodd"></path><path id="path1" d="M232.329 109.460 L 223.086 109.534 223.439 110.213 C 223.633 110.587,225.359 112.455,227.275 114.364 C 231.082 118.158,231.216 118.366,230.776 119.844 C 230.611 120.399,230.320 121.512,230.128 122.318 C 229.936 123.125,229.510 124.744,229.181 125.916 C 228.851 127.089,228.426 128.708,228.235 129.514 C 228.045 130.320,227.625 131.879,227.302 132.978 C 226.979 134.077,226.559 135.636,226.368 136.442 C 226.177 137.249,225.765 138.807,225.453 139.907 C 225.141 141.006,224.789 142.445,224.670 143.105 C 224.552 143.764,224.259 145.019,224.020 145.892 C 223.211 148.844,223.053 148.553,228.314 153.811 L 233.045 158.538 245.303 158.380 C 257.786 158.220,258.228 158.178,258.228 157.165 C 258.228 156.873,258.401 156.078,258.612 155.399 C 259.814 151.542,260.154 150.046,259.985 149.371 L 259.803 148.645 248.422 148.706 C 242.163 148.739,236.781 148.751,236.462 148.733 C 235.735 148.693,235.591 148.070,235.991 146.702 C 236.163 146.116,236.442 145.097,236.611 144.437 C 237.221 142.056,239.287 134.285,239.959 131.845 C 240.611 129.475,242.251 123.070,242.628 121.422 C 243.187 118.974,242.291 119.153,254.749 118.996 C 266.545 118.848,266.210 118.892,266.218 117.496 C 266.222 116.975,265.710 116.320,264.157 114.853 C 263.021 113.780,261.235 112.082,260.188 111.081 L 258.285 109.260 249.928 109.324 C 245.333 109.358,237.413 109.420,232.329 109.460 M181.569 109.740 C 179.405 109.865,179.568 110.201,183.763 114.261 C 188.268 118.620,188.150 118.270,186.796 123.251 C 186.357 124.863,185.698 127.382,185.330 128.847 C 184.963 130.313,184.493 132.112,184.286 132.845 C 184.079 133.578,183.648 135.197,183.327 136.442 C 182.660 139.032,181.841 142.067,181.494 143.238 C 181.363 143.678,181.174 144.457,181.073 144.970 C 180.972 145.483,180.589 146.922,180.222 148.168 C 179.855 149.414,179.403 151.093,179.217 151.899 C 178.581 154.650,178.219 156.029,177.865 157.045 C 177.236 158.853,177.158 158.828,183.440 158.823 C 189.569 158.819,189.674 158.797,190.003 157.467 C 190.126 156.970,190.347 156.203,190.495 155.763 C 190.642 155.323,190.897 154.424,191.061 153.764 C 191.723 151.103,192.125 149.533,192.664 147.502 C 192.975 146.329,193.347 144.890,193.491 144.304 C 193.635 143.718,193.929 142.786,194.145 142.233 C 194.360 141.681,194.537 140.940,194.537 140.587 C 194.537 139.183,194.880 139.107,201.227 139.107 C 207.861 139.107,207.683 139.043,207.072 141.214 C 206.882 141.887,206.618 143.087,206.485 143.880 C 206.351 144.672,206.157 145.452,206.053 145.612 C 205.872 145.891,205.753 146.351,204.819 150.383 C 204.588 151.381,204.278 152.422,204.131 152.697 C 203.984 152.971,203.864 153.428,203.864 153.712 C 203.864 153.996,203.623 154.983,203.328 155.907 C 202.447 158.663,202.255 158.562,208.346 158.557 C 214.392 158.553,214.808 158.446,215.140 156.822 C 215.259 156.240,215.529 155.163,215.741 154.430 C 215.953 153.698,216.237 152.618,216.374 152.032 C 216.510 151.446,216.873 150.067,217.180 148.967 C 217.487 147.868,217.860 146.489,218.009 145.903 C 218.158 145.316,218.634 143.684,219.067 142.276 C 220.113 138.870,220.175 139.102,217.542 136.568 C 215.672 134.769,215.290 134.272,215.541 133.969 C 215.848 133.600,219.196 131.291,221.359 129.956 C 222.531 129.234,222.497 129.311,223.968 124.051 C 225.444 118.774,225.656 119.434,221.136 115.256 C 219.391 113.644,217.286 111.688,216.457 110.910 L 214.950 109.494 198.947 109.577 C 190.146 109.623,182.326 109.696,181.569 109.740 M151.377 109.993 C 142.797 110.036,137.029 110.166,136.876 110.319 C 136.640 110.555,138.544 112.549,143.230 116.973 L 144.766 118.423 144.610 119.741 C 144.524 120.465,144.282 121.551,144.072 122.155 C 143.863 122.758,143.492 124.031,143.249 124.983 C 143.006 125.936,142.645 127.315,142.448 128.048 C 142.250 128.781,141.830 130.400,141.514 131.646 C 141.198 132.891,140.774 134.510,140.572 135.243 C 140.057 137.110,139.414 139.581,139.117 140.839 C 138.618 142.954,138.260 144.318,137.999 145.103 C 137.852 145.543,137.574 146.562,137.380 147.368 C 136.787 149.832,135.604 154.335,135.077 156.141 C 134.189 159.180,134.326 159.236,141.948 158.923 C 146.975 158.717,146.904 158.754,147.235 156.229 C 147.336 155.460,147.517 154.770,147.637 154.696 C 147.757 154.622,147.933 154.052,148.028 153.430 C 148.124 152.807,148.363 151.759,148.560 151.099 C 149.338 148.490,149.757 146.927,149.916 146.036 C 150.008 145.523,150.244 144.564,150.442 143.904 C 150.639 143.245,151.002 141.985,151.249 141.106 C 151.836 139.013,151.508 139.115,157.628 139.115 C 164.951 139.114,164.520 138.875,163.597 142.438 C 163.089 144.398,162.870 145.283,162.050 148.701 C 161.892 149.360,161.581 150.530,161.361 151.299 C 159.672 157.186,159.414 158.530,159.913 158.845 C 160.356 159.126,165.667 159.170,169.159 158.922 L 171.577 158.751 172.100 156.990 C 172.636 155.184,173.078 153.542,173.470 151.899 C 173.593 151.386,174.010 149.827,174.399 148.434 C 174.787 147.042,175.265 145.243,175.461 144.437 C 175.657 143.631,176.084 142.012,176.410 140.839 C 176.736 139.667,177.108 138.190,177.237 137.557 C 177.366 136.924,177.553 136.276,177.652 136.116 C 177.751 135.956,178.002 135.094,178.210 134.202 C 178.417 133.309,178.743 131.910,178.932 131.094 C 179.122 130.277,179.413 129.356,179.579 129.046 C 179.744 128.736,179.880 128.249,179.880 127.963 C 179.880 127.677,180.054 126.860,180.266 126.147 C 182.447 118.829,182.741 119.933,177.182 114.584 C 171.989 109.588,172.441 109.834,168.554 109.884 C 166.942 109.905,159.212 109.954,151.377 109.993 M169.141 119.850 C 169.485 120.283,169.392 121.203,168.811 123.118 C 168.610 123.777,168.179 125.336,167.853 126.582 C 167.052 129.639,167.543 129.424,160.922 129.610 C 153.673 129.813,154.129 130.137,155.353 125.650 C 155.673 124.477,156.086 122.858,156.270 122.052 C 156.942 119.106,156.724 119.183,164.024 119.342 C 167.894 119.427,168.883 119.525,169.141 119.850 M212.362 119.363 C 212.785 119.631,212.811 119.478,211.446 124.717 C 210.129 129.772,210.962 129.270,204.027 129.186 L 198.135 129.114 198.047 128.350 C 197.973 127.700,198.844 124.013,199.598 121.785 C 199.722 121.419,199.897 120.784,199.986 120.375 C 200.078 119.954,200.407 119.527,200.741 119.392 C 201.510 119.083,211.878 119.057,212.362 119.363 " stroke="none" fill="#f5f5f5" fill-rule="evenodd"></path><path id="path2" d="M257.258 0.866 C 257.089 1.460,256.825 1.759,256.420 1.817 C 255.736 1.916,255.740 1.901,256.116 3.167 C 256.451 4.291,256.086 5.596,255.436 5.596 C 255.204 5.596,255.030 5.831,255.030 6.142 C 255.030 6.943,254.300 8.229,253.059 9.617 C 252.378 10.379,251.773 11.434,251.456 12.415 C 250.744 14.618,249.494 17.109,248.846 17.615 C 248.287 18.052,248.282 18.264,248.780 20.688 C 248.980 21.658,248.594 22.040,248.006 21.453 C 247.780 21.227,247.534 21.159,247.448 21.299 C 247.363 21.436,247.415 21.624,247.564 21.716 C 247.947 21.953,247.901 22.595,247.502 22.580 C 246.599 22.546,246.300 22.737,245.629 23.771 C 245.230 24.386,244.903 25.052,244.903 25.249 C 244.903 25.446,244.483 26.506,243.968 27.605 C 243.359 28.906,243.087 29.817,243.188 30.218 C 243.306 30.687,243.145 30.999,242.516 31.529 C 241.838 32.099,241.673 32.458,241.597 33.521 C 241.498 34.907,240.693 36.425,239.449 37.575 C 238.767 38.205,236.642 42.304,236.642 42.990 C 236.642 43.166,236.390 43.467,236.082 43.659 C 235.655 43.926,235.550 44.204,235.641 44.825 C 235.732 45.442,235.647 45.671,235.294 45.763 C 234.713 45.915,234.504 46.658,234.701 47.871 C 234.815 48.573,234.710 48.994,234.273 49.585 C 233.821 50.196,233.754 50.482,233.969 50.883 C 234.350 51.596,234.336 51.622,233.511 51.767 C 229.673 52.439,224.653 54.551,224.648 55.496 C 224.648 55.680,224.414 56.182,224.131 56.612 C 223.847 57.043,223.667 57.479,223.730 57.582 C 223.794 57.686,223.576 57.947,223.246 58.163 C 222.851 58.422,222.199 59.689,221.344 61.857 C 220.629 63.672,219.642 65.996,219.151 67.022 C 218.660 68.048,217.980 69.727,217.639 70.753 C 217.239 71.955,216.670 72.998,216.038 73.684 C 215.035 74.775,214.257 76.137,214.257 76.804 C 214.257 77.009,213.897 77.745,213.458 78.438 C 213.018 79.131,212.658 79.814,212.658 79.956 C 212.658 80.097,212.409 80.462,212.105 80.767 C 211.144 81.728,211.456 82.004,215.123 83.442 C 216.818 84.106,217.051 84.615,216.096 85.569 C 215.688 85.978,215.566 86.372,215.643 87.035 C 215.734 87.812,215.669 87.941,215.190 87.941 C 214.519 87.941,213.991 88.417,213.991 89.019 C 213.991 89.260,213.751 89.675,213.458 89.940 C 213.165 90.205,212.925 90.648,212.925 90.924 C 212.925 91.969,208.768 93.005,207.931 92.168 C 207.578 91.815,175.277 91.827,174.569 92.180 C 174.117 92.405,153.264 92.388,147.368 92.158 C 145.390 92.080,141.121 91.991,137.883 91.959 C 132.021 91.901,130.011 91.698,129.826 91.142 C 129.756 90.934,129.624 90.937,129.363 91.154 C 129.036 91.425,127.514 91.629,125.450 91.677 C 125.025 91.687,124.717 91.843,124.717 92.049 C 124.717 92.245,124.363 92.476,123.931 92.562 C 122.774 92.794,122.423 94.159,122.813 96.910 C 123.017 98.354,123.122 110.622,123.151 136.558 L 123.192 174.114 122.489 174.719 C 121.331 175.715,121.969 176.682,123.783 176.682 C 124.136 176.682,124.520 176.853,124.637 177.062 C 124.972 177.660,127.838 177.705,129.048 177.131 C 130.639 176.376,146.770 176.565,147.635 177.348 C 148.201 177.860,148.530 177.878,155.863 177.789 C 165.218 177.677,164.808 177.531,164.331 180.805 C 164.032 182.855,163.987 182.948,163.042 183.479 C 161.515 184.335,161.023 184.898,160.874 185.960 C 160.629 187.702,160.241 189.188,159.932 189.560 C 159.767 189.759,159.592 190.287,159.543 190.733 C 159.494 191.179,159.097 192.007,158.662 192.574 C 157.447 194.152,156.962 195.003,156.962 195.552 C 156.962 195.828,156.722 196.270,156.429 196.536 C 156.136 196.801,155.896 197.231,155.896 197.492 C 155.896 197.752,155.669 198.037,155.393 198.125 C 155.066 198.229,154.779 198.721,154.577 199.525 C 154.405 200.207,154.062 200.913,153.815 201.094 C 153.098 201.617,154.301 202.669,156.400 203.355 C 157.369 203.671,158.240 204.005,158.337 204.097 C 159.033 204.756,155.580 214.257,154.644 214.257 C 154.263 214.257,153.894 215.419,154.145 215.826 C 154.236 215.972,153.887 216.515,153.371 217.031 C 152.854 217.548,152.432 218.164,152.432 218.401 C 152.432 218.637,152.029 219.331,151.538 219.942 C 151.046 220.553,150.517 221.532,150.363 222.119 C 150.208 222.705,149.831 223.842,149.524 224.646 C 149.218 225.451,148.966 226.350,148.963 226.645 C 148.957 227.494,148.613 227.826,147.668 227.898 L 146.789 227.965 146.966 229.386 L 147.144 230.806 146.390 230.726 C 145.679 230.651,145.632 230.711,145.555 231.774 C 145.501 232.510,145.298 233.025,144.970 233.254 C 144.694 233.448,144.207 234.439,143.888 235.457 C 142.449 240.056,142.371 240.237,141.797 240.325 C 141.383 240.388,141.239 240.604,141.239 241.159 C 141.239 241.618,141.027 242.048,140.691 242.273 C 140.297 242.536,140.085 243.075,139.933 244.196 C 139.817 245.053,139.585 245.839,139.416 245.943 C 139.248 246.047,139.079 246.754,139.042 247.515 C 139.005 248.275,138.896 248.898,138.801 248.899 C 137.909 248.909,135.376 252.879,135.376 254.267 C 135.376 254.669,135.262 255.069,135.122 255.156 C 134.982 255.243,134.728 256.018,134.559 256.878 C 134.231 258.547,133.196 259.358,132.890 258.187 C 132.709 257.494,132.179 257.573,132.177 258.294 C 132.176 258.624,131.996 259.238,131.777 259.657 C 131.310 260.552,131.258 261.731,131.667 262.140 C 132.187 262.660,131.602 264.742,130.908 264.842 C 130.363 264.920,129.514 265.798,129.514 266.282 C 129.514 266.847,134.272 266.499,134.455 265.920 C 134.730 265.054,140.101 253.862,140.704 252.898 C 140.842 252.678,141.213 251.899,141.528 251.166 C 142.276 249.431,146.276 241.091,151.498 230.380 C 152.927 227.448,154.519 224.151,155.035 223.051 C 155.551 221.952,156.915 219.089,158.066 216.690 C 159.218 214.290,160.160 212.277,160.160 212.216 C 160.160 212.155,161.119 210.166,162.292 207.796 C 163.464 205.425,164.424 203.260,164.424 202.983 C 164.424 202.707,164.600 202.162,164.815 201.773 C 165.170 201.132,167.241 196.766,167.897 195.277 C 168.043 194.943,168.521 194.013,168.959 193.210 C 169.396 192.407,169.753 191.665,169.753 191.562 C 169.753 191.357,172.470 185.797,173.509 183.877 C 173.866 183.218,174.509 181.779,174.940 180.680 C 175.370 179.580,175.878 178.444,176.069 178.155 C 176.717 177.173,176.506 176.750,175.283 176.588 C 173.222 176.314,137.760 175.832,131.321 175.991 C 125.266 176.140,124.989 176.125,124.725 175.632 C 124.289 174.818,124.347 93.294,124.783 93.129 C 124.967 93.059,145.874 92.973,171.245 92.937 C 219.619 92.868,218.254 92.901,218.254 91.800 C 218.254 91.613,218.896 90.099,219.681 88.435 C 221.662 84.233,221.877 83.733,222.392 82.145 C 222.642 81.376,222.952 80.746,223.082 80.746 C 223.212 80.746,223.318 80.609,223.318 80.441 C 223.318 80.273,223.721 79.284,224.214 78.242 C 226.208 74.031,226.795 72.832,227.428 71.686 C 228.152 70.372,230.513 65.380,230.513 65.161 C 230.513 65.086,230.924 64.155,231.425 63.092 C 231.927 62.029,232.649 60.500,233.030 59.694 C 234.160 57.297,236.291 53.303,236.697 52.817 C 236.905 52.569,237.593 51.286,238.226 49.967 C 238.860 48.648,240.249 45.769,241.313 43.571 C 242.378 41.372,243.758 38.494,244.380 37.175 C 246.881 31.870,248.517 28.447,250.492 24.384 C 251.632 22.039,253.065 19.041,253.677 17.722 C 254.289 16.402,254.904 15.143,255.044 14.923 C 255.183 14.704,255.407 14.275,255.540 13.970 C 255.946 13.038,258.204 8.329,260.131 4.393 C 262.424 -0.292,262.450 -0.000,259.732 0.000 L 257.505 0.000 257.258 0.866 M237.830 43.952 C 237.914 44.089,237.872 44.269,237.737 44.353 C 237.389 44.568,236.615 44.231,236.793 43.943 C 236.986 43.630,237.635 43.636,237.830 43.952 M137.516 98.601 L 129.662 98.734 129.325 99.400 C 128.912 100.218,128.817 168.489,129.228 169.569 C 129.370 169.944,129.778 170.295,130.191 170.399 C 131.649 170.765,267.635 170.587,268.003 170.219 C 268.357 169.865,268.376 167.216,268.361 119.217 C 268.355 100.548,268.333 99.700,267.854 99.108 L 267.353 98.489 206.361 98.479 C 172.816 98.473,141.836 98.528,137.516 98.601 M167.770 99.406 C 168.709 99.763,204.373 99.759,205.863 99.402 C 207.357 99.044,242.316 99.063,243.704 99.423 C 244.290 99.575,249.027 99.764,254.231 99.844 C 261.412 99.953,263.826 100.073,264.251 100.341 C 264.559 100.535,265.218 100.732,265.717 100.780 L 266.622 100.866 266.712 105.929 C 266.762 108.714,266.833 112.372,266.871 114.057 C 266.908 115.743,266.868 116.774,266.781 116.349 C 266.694 115.924,266.420 115.504,266.172 115.416 C 265.924 115.328,264.239 113.798,262.426 112.015 L 259.132 108.773 256.881 108.694 C 253.785 108.586,224.190 108.987,223.118 109.152 C 221.949 109.331,222.014 109.836,223.384 111.208 C 224.007 111.832,224.931 112.878,225.437 113.533 C 225.943 114.188,226.723 115.096,227.169 115.551 C 229.732 118.161,230.162 118.734,229.957 119.260 C 229.844 119.550,229.743 120.282,229.732 120.887 C 229.722 121.492,229.549 122.123,229.348 122.290 C 229.146 122.458,228.903 123.187,228.807 123.911 C 228.711 124.635,228.521 125.296,228.386 125.380 C 228.250 125.464,228.058 126.246,227.960 127.119 C 227.861 127.991,227.616 128.842,227.414 129.009 C 227.197 129.189,227.049 129.833,227.049 130.593 C 227.049 131.430,226.896 132.027,226.608 132.315 C 226.354 132.569,226.118 133.340,226.052 134.133 C 225.989 134.890,225.768 135.888,225.560 136.349 C 225.353 136.811,225.183 137.668,225.183 138.253 C 225.183 138.909,225.043 139.371,224.817 139.457 C 224.590 139.545,224.398 140.186,224.310 141.151 C 224.131 143.124,223.332 146.890,223.021 147.222 C 222.225 148.074,222.768 149.106,225.348 151.643 C 226.758 153.030,228.341 154.704,228.867 155.363 C 229.393 156.023,230.417 157.162,231.144 157.895 L 232.465 159.227 244.687 159.360 C 258.703 159.513,259.059 159.467,259.186 157.495 C 259.248 156.541,259.636 154.899,259.983 154.124 C 260.190 153.662,260.360 152.799,260.360 152.207 C 260.360 151.615,260.475 151.059,260.616 150.972 C 261.193 150.616,261.434 148.885,260.978 148.381 C 260.572 147.933,259.763 147.901,248.558 147.901 L 236.573 147.901 236.731 146.924 C 236.818 146.386,236.999 145.876,237.134 145.791 C 237.268 145.706,237.464 144.996,237.571 144.213 C 237.678 143.430,237.931 142.471,238.135 142.081 C 238.338 141.691,238.505 140.817,238.506 140.139 C 238.507 139.370,238.658 138.781,238.907 138.574 C 239.127 138.392,239.307 137.983,239.307 137.666 C 239.307 137.349,239.547 136.408,239.840 135.574 C 240.133 134.740,240.377 133.725,240.382 133.318 C 240.386 132.911,240.566 132.346,240.781 132.061 C 240.996 131.776,241.173 131.199,241.173 130.778 C 241.173 130.356,241.313 129.750,241.484 129.430 C 241.655 129.110,241.949 128.128,242.137 127.249 C 242.325 126.369,242.658 124.810,242.876 123.784 C 243.805 119.414,243.064 119.654,255.660 119.654 C 264.576 119.654,266.244 119.594,266.577 119.261 C 266.923 118.915,267.021 118.945,267.395 119.518 C 267.921 120.319,268.081 141.005,267.567 141.624 C 267.027 142.275,266.901 148.372,267.389 150.264 C 267.810 151.897,268.140 169.257,267.758 169.639 C 267.016 170.381,262.492 169.980,262.492 169.173 C 262.492 168.717,262.392 168.663,261.892 168.848 C 261.562 168.971,253.857 169.102,244.770 169.140 C 231.152 169.196,227.826 169.282,225.849 169.628 C 222.103 170.284,187.052 170.105,185.876 169.424 C 185.393 169.144,184.866 169.033,184.544 169.144 C 184.250 169.244,176.336 169.338,166.955 169.353 C 154.965 169.371,149.544 169.470,148.701 169.688 C 147.422 170.017,133.660 170.149,131.845 169.849 C 131.099 169.726,130.846 169.556,130.846 169.177 C 130.846 168.898,130.659 168.225,130.430 167.680 C 129.807 166.197,129.844 102.731,130.468 102.041 C 130.724 101.758,130.811 101.352,130.705 100.931 C 130.419 99.791,131.384 99.670,140.946 99.640 C 145.724 99.626,149.933 99.518,150.300 99.400 C 151.306 99.078,166.922 99.084,167.770 99.406 M165.756 108.997 C 164.598 109.192,155.020 109.263,142.045 109.171 L 135.789 109.127 135.535 109.850 C 135.295 110.533,135.435 110.718,138.060 113.172 C 139.589 114.601,141.471 116.435,142.242 117.246 L 143.645 118.721 143.487 120.320 C 143.400 121.199,143.158 122.371,142.950 122.923 C 142.742 123.476,142.571 124.256,142.570 124.656 C 142.569 125.056,142.397 125.712,142.187 126.114 C 141.977 126.517,141.722 127.404,141.619 128.086 C 141.517 128.768,141.273 129.635,141.077 130.012 C 140.881 130.390,140.641 131.229,140.544 131.878 C 140.447 132.526,140.205 133.369,140.005 133.750 C 139.806 134.132,139.643 134.886,139.642 135.427 C 139.641 135.968,139.527 136.481,139.389 136.566 C 139.251 136.651,139.065 137.288,138.975 137.981 C 138.886 138.674,138.649 139.614,138.449 140.070 C 138.249 140.526,137.998 141.481,137.891 142.193 C 137.784 142.905,137.535 143.649,137.336 143.848 C 137.123 144.061,136.975 144.790,136.975 145.627 C 136.975 146.642,136.862 147.089,136.576 147.198 C 136.297 147.305,136.176 147.740,136.176 148.633 C 136.176 149.344,135.997 150.170,135.774 150.488 C 135.553 150.804,135.297 151.784,135.205 152.665 C 135.102 153.644,134.896 154.322,134.674 154.407 C 134.445 154.495,134.310 154.971,134.310 155.692 C 134.310 156.325,134.074 157.278,133.781 157.825 C 132.994 159.293,133.282 159.360,140.306 159.360 C 146.878 159.360,147.368 159.268,147.368 158.024 C 147.368 157.592,147.548 156.787,147.767 156.235 C 147.986 155.682,148.275 154.690,148.410 154.031 C 148.545 153.371,148.979 151.692,149.375 150.300 C 149.772 148.907,150.148 147.468,150.211 147.102 C 150.346 146.316,150.835 144.520,151.650 141.818 C 152.378 139.405,152.750 139.196,155.487 139.664 C 156.518 139.841,158.501 140.017,159.893 140.055 C 161.286 140.093,162.635 140.135,162.891 140.149 C 163.407 140.176,163.544 141.213,163.092 141.665 C 162.946 141.811,162.695 142.644,162.534 143.517 C 162.372 144.389,162.116 145.180,161.963 145.275 C 161.811 145.369,161.633 146.089,161.569 146.874 C 161.505 147.659,161.294 148.661,161.101 149.101 C 160.703 150.007,160.233 151.731,159.903 153.498 C 159.780 154.157,159.430 155.435,159.125 156.338 C 158.677 157.668,158.626 158.136,158.859 158.803 L 159.146 159.627 165.496 159.627 L 171.847 159.627 172.377 158.953 C 172.669 158.582,172.988 157.773,173.086 157.154 C 173.185 156.535,173.435 155.515,173.641 154.887 C 173.848 154.259,174.017 153.381,174.017 152.936 C 174.017 152.491,174.197 151.947,174.417 151.727 C 174.659 151.485,174.817 150.833,174.817 150.074 C 174.817 149.384,174.985 148.579,175.192 148.284 C 175.398 147.990,175.654 147.154,175.761 146.426 C 175.868 145.699,176.120 144.867,176.319 144.578 C 176.519 144.289,176.682 143.566,176.682 142.971 C 176.682 142.377,176.851 141.650,177.057 141.356 C 177.263 141.061,177.518 140.225,177.624 139.497 C 177.729 138.770,177.915 138.049,178.036 137.895 C 178.158 137.742,178.372 136.962,178.513 136.163 C 178.654 135.364,178.954 134.231,179.180 133.644 C 179.405 133.058,179.599 132.278,179.610 131.912 C 179.621 131.546,179.807 131.013,180.022 130.729 C 180.237 130.444,180.413 129.690,180.413 129.054 C 180.413 128.417,180.581 127.630,180.787 127.306 C 180.993 126.981,181.247 126.176,181.352 125.516 C 181.456 124.857,181.708 123.993,181.910 123.598 C 182.113 123.202,182.282 122.482,182.287 121.999 C 182.292 121.515,182.471 120.886,182.687 120.602 C 183.347 119.729,181.825 116.989,180.680 116.989 C 180.533 116.989,180.413 116.809,180.413 116.589 C 180.413 116.369,180.309 116.189,180.182 116.189 C 179.831 116.189,176.682 113.103,176.682 112.759 C 176.682 112.594,176.515 112.458,176.311 112.458 C 176.107 112.458,175.871 112.278,175.786 112.059 C 175.702 111.839,175.449 111.659,175.225 111.659 C 175.000 111.659,174.817 111.529,174.817 111.369 C 174.817 109.373,170.391 108.214,165.756 108.997 M179.280 108.889 C 177.904 109.314,178.653 110.498,182.948 114.688 C 187.363 118.995,187.437 119.120,186.542 120.789 C 186.217 121.396,186.009 122.293,186.009 123.088 C 186.009 124.003,185.890 124.439,185.610 124.547 C 185.365 124.640,185.210 125.044,185.210 125.584 C 185.210 126.070,184.970 127.150,184.677 127.984 C 184.384 128.818,184.144 129.779,184.144 130.120 C 184.144 130.461,184.017 130.866,183.862 131.021 C 183.707 131.176,183.511 132.010,183.427 132.873 C 183.343 133.737,183.123 134.624,182.939 134.843 C 182.754 135.063,182.516 135.771,182.411 136.415 C 182.305 137.060,182.052 137.985,181.849 138.472 C 181.645 138.959,181.479 139.728,181.479 140.182 C 181.479 140.636,181.337 141.270,181.163 141.590 C 180.989 141.910,180.757 142.819,180.647 143.611 C 180.538 144.403,180.317 145.131,180.157 145.230 C 179.997 145.329,179.791 146.060,179.700 146.856 C 179.609 147.651,179.372 148.538,179.174 148.827 C 178.976 149.116,178.814 149.757,178.814 150.251 C 178.814 150.746,178.649 151.469,178.447 151.858 C 177.651 153.392,176.643 158.556,177.011 159.215 C 177.208 159.567,178.081 159.626,183.025 159.623 C 189.117 159.619,190.050 159.463,190.222 158.421 C 190.270 158.132,190.481 157.517,190.691 157.055 C 190.901 156.593,191.073 155.971,191.073 155.673 C 191.073 155.375,191.206 154.794,191.368 154.381 C 191.531 153.968,191.819 152.971,192.009 152.165 C 192.199 151.359,192.617 149.740,192.938 148.568 C 193.260 147.395,193.635 145.956,193.773 145.370 C 193.910 144.783,194.189 143.944,194.392 143.504 C 194.596 143.065,194.921 142.180,195.116 141.538 C 195.677 139.688,195.917 139.617,201.362 139.701 L 206.129 139.773 206.050 141.506 C 205.968 143.326,205.703 144.770,204.927 147.635 C 204.669 148.588,204.257 150.147,204.012 151.099 C 203.767 152.052,203.393 153.431,203.181 154.164 C 201.682 159.336,201.407 159.094,208.788 159.094 C 215.322 159.094,215.590 159.025,215.590 157.347 C 215.590 156.843,216.162 154.695,216.966 152.182 C 217.127 151.678,217.423 150.568,217.624 149.717 C 218.722 145.047,219.309 143.192,219.999 142.207 C 220.239 141.864,220.386 141.010,220.386 139.958 L 220.386 138.263 218.379 136.275 C 216.494 134.408,216.164 133.777,217.071 133.777 C 217.282 133.777,217.457 133.688,217.460 133.578 C 217.463 133.468,218.060 133.018,218.787 132.578 C 219.515 132.139,220.112 131.689,220.115 131.579 C 220.118 131.469,220.342 131.379,220.614 131.379 C 220.886 131.379,221.432 131.079,221.827 130.713 C 222.222 130.346,222.660 130.047,222.799 130.047 C 222.938 130.047,223.051 129.760,223.051 129.409 C 223.051 129.058,223.216 128.708,223.418 128.631 C 223.619 128.553,223.867 127.936,223.968 127.260 C 224.070 126.583,224.325 125.618,224.535 125.115 C 224.745 124.612,224.917 123.787,224.917 123.282 C 224.917 122.776,225.035 122.323,225.179 122.274 C 225.521 122.158,225.948 119.858,225.785 119.008 C 225.716 118.645,225.072 117.807,224.355 117.147 C 223.638 116.486,223.051 115.843,223.051 115.717 C 223.051 115.591,222.139 114.850,221.023 114.072 C 219.908 113.293,218.439 112.064,217.759 111.341 C 215.364 108.795,217.215 109.019,197.310 108.874 C 187.650 108.803,179.537 108.810,179.280 108.889 M207.169 109.527 L 215.197 109.527 217.581 111.726 C 222.531 116.290,225.183 118.969,225.183 119.403 C 225.183 119.650,224.935 120.797,224.631 121.952 C 224.327 123.106,223.919 124.710,223.725 125.516 C 222.980 128.613,222.552 129.443,221.332 130.158 C 219.667 131.134,215.902 133.755,215.703 134.076 C 215.610 134.227,216.505 135.323,217.693 136.511 C 220.245 139.062,220.263 139.153,219.050 143.053 C 217.927 146.662,217.568 147.916,216.782 150.966 C 216.404 152.432,215.931 154.171,215.731 154.830 C 215.531 155.490,215.292 156.479,215.200 157.028 C 214.929 158.644,214.384 158.785,208.318 158.815 L 203.078 158.841 202.908 158.161 C 202.814 157.787,202.859 157.034,203.008 156.489 C 204.159 152.283,204.486 151.052,204.794 149.767 C 204.988 148.961,205.345 147.582,205.589 146.702 C 205.996 145.231,206.500 143.126,207.038 140.654 C 207.366 139.141,207.246 139.107,201.430 139.107 C 195.339 139.107,194.943 139.196,194.688 140.620 C 194.587 141.181,194.283 142.358,194.010 143.238 C 193.446 145.062,192.970 146.793,192.142 150.033 C 191.824 151.279,191.392 152.838,191.183 153.498 C 190.974 154.157,190.804 155.020,190.805 155.414 C 190.806 155.808,190.701 156.196,190.572 156.276 C 190.444 156.355,190.204 156.956,190.039 157.612 C 189.657 159.127,189.587 159.141,182.811 159.039 L 177.615 158.961 177.527 158.195 C 177.479 157.774,177.569 157.301,177.727 157.143 C 177.885 156.985,178.014 156.610,178.014 156.309 C 178.013 156.009,178.245 154.923,178.529 153.897 C 179.390 150.786,180.954 144.935,181.377 143.238 C 181.597 142.358,181.950 141.039,182.162 140.306 C 182.375 139.574,182.662 138.494,182.801 137.908 C 183.189 136.268,185.179 128.651,186.420 124.051 C 188.033 118.074,188.228 118.750,183.620 114.348 C 180.907 111.755,179.880 110.604,179.880 110.154 L 179.880 109.534 188.341 109.447 C 192.995 109.399,197.329 109.398,197.972 109.444 C 198.615 109.489,202.754 109.527,207.169 109.527 M262.478 112.983 C 266.034 116.418,266.329 116.777,266.329 117.664 C 266.329 119.117,266.364 119.112,254.946 119.117 C 243.277 119.121,243.477 119.093,243.018 120.790 C 241.575 126.124,240.368 130.799,240.090 132.130 C 239.958 132.762,239.783 133.387,239.703 133.518 C 239.622 133.649,239.129 135.409,238.607 137.431 C 238.085 139.452,237.481 141.765,237.264 142.572 C 237.047 143.378,236.705 144.697,236.505 145.503 C 236.305 146.309,236.063 147.228,235.967 147.545 C 235.609 148.731,236.189 148.783,248.308 148.646 C 260.052 148.513,260.358 148.537,260.361 149.586 C 260.362 149.926,259.557 152.893,258.739 155.569 C 258.458 156.488,258.228 157.413,258.228 157.624 C 258.228 158.489,257.218 158.561,245.002 158.561 L 232.808 158.561 228.063 153.756 C 225.453 151.113,223.318 148.767,223.318 148.543 C 223.318 148.319,223.629 146.793,224.009 145.153 C 224.678 142.264,224.967 141.128,225.814 138.041 C 226.036 137.235,226.300 136.096,226.401 135.510 C 226.502 134.923,226.675 134.324,226.786 134.177 C 226.896 134.031,227.122 133.311,227.289 132.578 C 227.577 131.309,227.858 130.238,229.179 125.383 C 231.227 117.854,231.304 118.630,228.197 115.504 C 226.751 114.049,224.911 112.139,224.109 111.259 L 222.652 109.660 225.583 109.527 C 227.195 109.454,235.290 109.364,243.571 109.328 L 258.628 109.263 262.478 112.983 M172.207 109.872 C 172.604 110.049,174.987 112.206,177.503 114.667 L 182.078 119.140 181.901 120.529 C 181.803 121.293,181.560 122.398,181.361 122.985 C 181.162 123.571,180.794 124.830,180.543 125.783 C 180.291 126.736,179.876 128.294,179.619 129.247 C 179.048 131.367,178.642 132.922,178.158 134.843 C 177.954 135.650,177.610 136.969,177.392 137.775 C 177.175 138.581,176.737 140.200,176.420 141.372 C 176.103 142.545,175.691 144.175,175.505 144.994 C 175.319 145.814,175.086 146.615,174.987 146.775 C 174.888 146.935,174.702 147.584,174.573 148.217 C 174.445 148.849,174.079 150.326,173.761 151.499 C 173.443 152.672,173.069 154.111,172.930 154.697 C 171.786 159.516,172.474 159.136,165.090 159.036 L 159.494 158.961 159.523 158.161 C 159.539 157.722,159.994 155.743,160.534 153.764 C 161.546 150.057,161.664 149.599,162.412 146.436 C 162.655 145.410,163.026 144.031,163.238 143.371 C 163.449 142.712,163.652 141.572,163.690 140.839 L 163.757 139.507 158.428 139.299 C 151.449 139.026,151.649 138.930,150.820 142.971 C 150.607 144.009,150.467 144.556,149.495 148.168 C 149.238 149.121,148.828 150.680,148.583 151.632 C 148.338 152.585,147.963 153.964,147.751 154.697 C 147.539 155.430,147.253 156.566,147.115 157.221 C 146.728 159.068,146.636 159.094,140.544 159.094 C 133.733 159.094,133.891 159.190,135.050 155.763 C 135.199 155.323,135.587 153.824,135.913 152.432 C 136.239 151.039,136.804 148.881,137.169 147.635 C 137.534 146.389,137.980 144.710,138.159 143.904 C 138.339 143.098,138.622 142.019,138.788 141.506 C 138.954 140.993,139.402 139.314,139.782 137.775 C 140.163 136.236,140.719 134.077,141.018 132.978 C 141.317 131.879,141.668 130.440,141.798 129.780 C 141.929 129.121,142.149 128.341,142.288 128.048 C 142.426 127.755,142.667 126.915,142.822 126.183 C 142.976 125.450,143.351 124.011,143.655 122.985 C 143.958 121.959,144.271 120.517,144.350 119.782 L 144.493 118.445 142.163 116.184 C 140.882 114.941,139.047 113.161,138.084 112.228 C 135.443 109.666,135.310 109.704,146.302 109.870 C 151.213 109.944,157.748 109.919,160.826 109.814 C 169.609 109.514,171.423 109.523,172.207 109.872 M157.165 119.987 C 156.950 120.316,156.338 122.282,155.805 124.354 C 155.272 126.426,154.770 128.295,154.688 128.508 C 154.324 129.456,155.142 129.565,161.104 129.365 C 167.670 129.144,166.916 129.489,167.764 126.316 C 168.019 125.363,168.450 123.821,168.724 122.890 C 169.747 119.400,169.725 119.387,162.705 119.387 C 157.659 119.387,157.548 119.399,157.165 119.987 M200.130 120.520 C 199.971 121.143,199.776 121.832,199.696 122.052 C 199.426 122.800,198.466 126.445,198.256 127.515 C 197.919 129.241,197.938 129.247,204.131 129.247 C 210.730 129.247,209.862 129.841,211.344 124.317 C 211.658 123.145,212.023 121.838,212.154 121.413 C 212.285 120.988,212.392 120.358,212.392 120.014 L 212.392 119.387 206.406 119.387 L 200.420 119.387 200.130 120.520 M165.592 120.342 C 168.779 120.446,168.952 120.501,168.472 121.270 C 168.291 121.560,168.065 122.363,167.970 123.055 C 167.876 123.746,167.656 124.454,167.482 124.628 C 167.309 124.801,167.086 125.631,166.987 126.472 C 166.754 128.456,166.417 128.695,163.835 128.706 C 162.704 128.710,160.561 128.847,159.072 129.009 C 155.259 129.424,155.065 129.311,155.546 126.972 C 155.748 125.987,156.018 124.987,156.145 124.749 C 156.272 124.512,156.462 123.746,156.567 123.048 C 156.671 122.350,156.863 121.713,156.993 121.633 C 157.122 121.553,157.229 121.279,157.229 121.024 C 157.229 120.027,157.769 119.857,160.293 120.057 C 161.612 120.162,163.997 120.290,165.592 120.342 M202.946 120.476 C 203.075 120.685,203.206 120.685,203.414 120.476 C 203.596 120.295,205.129 120.187,207.523 120.187 C 211.828 120.187,211.981 120.261,211.240 122.000 C 211.010 122.541,210.742 123.524,210.646 124.184 C 210.467 125.412,209.747 127.785,209.372 128.381 C 209.216 128.629,207.837 128.714,203.982 128.714 C 198.326 128.714,198.229 128.682,199.072 127.107 C 199.221 126.829,199.390 126.113,199.447 125.516 C 199.505 124.919,199.693 124.260,199.867 124.051 C 200.040 123.842,200.247 122.953,200.327 122.076 C 200.449 120.724,200.557 120.464,201.035 120.370 C 202.131 120.154,202.769 120.190,202.946 120.476 " stroke="none" fill="#4c4328" fill-rule="evenodd"></path><path id="path3" d="M0.000 133.245 L 0.000 266.489 63.491 266.488 L 126.982 266.487 127.751 264.556 C 128.174 263.494,128.822 261.965,129.190 261.159 C 129.559 260.353,129.940 259.397,130.037 259.035 C 130.145 258.635,130.469 258.318,130.863 258.225 C 131.341 258.114,131.535 257.865,131.600 257.285 C 131.648 256.851,131.966 256.196,132.307 255.829 C 132.692 255.417,132.991 254.679,133.094 253.891 C 133.255 252.668,134.850 249.277,136.635 246.369 C 137.084 245.636,137.536 244.639,137.639 244.153 C 137.741 243.666,137.993 243.204,138.197 243.126 C 138.402 243.047,138.713 242.486,138.889 241.878 C 139.064 241.270,139.425 240.487,139.691 240.137 C 139.956 239.788,140.173 239.218,140.173 238.872 C 140.173 238.525,140.593 237.418,141.106 236.412 C 141.619 235.405,142.039 234.455,142.039 234.300 C 142.039 234.145,142.365 233.631,142.763 233.157 C 143.162 232.683,143.699 231.697,143.956 230.966 C 144.465 229.520,145.113 228.648,145.678 228.648 C 145.884 228.648,146.036 228.359,146.036 227.965 C 146.036 227.590,146.501 226.295,147.069 225.088 C 147.637 223.882,148.189 222.480,148.295 221.974 C 148.402 221.467,149.279 219.554,150.244 217.722 C 151.209 215.889,152.216 213.975,152.482 213.468 C 152.747 212.961,152.965 212.211,152.965 211.802 C 152.965 211.243,153.093 211.059,153.486 211.059 C 154.189 211.059,155.777 207.710,156.028 205.696 L 156.215 204.200 155.293 204.027 C 153.365 203.665,147.903 203.359,144.704 203.433 C 141.225 203.514,140.350 203.375,140.091 202.702 C 139.966 202.377,140.982 197.852,141.564 196.136 C 141.970 194.938,143.662 188.508,144.053 186.676 C 144.303 185.503,144.655 184.244,144.836 183.877 C 145.017 183.511,145.318 182.382,145.505 181.369 C 145.693 180.356,146.008 179.216,146.206 178.837 C 147.309 176.723,147.179 176.689,137.908 176.690 C 129.260 176.690,129.917 176.481,129.065 179.512 C 127.337 185.659,126.749 187.798,125.624 192.005 C 124.959 194.497,124.132 197.782,123.787 199.306 C 123.337 201.299,122.986 202.248,122.540 202.686 L 121.919 203.296 104.008 203.462 C 91.280 203.580,85.940 203.544,85.554 203.337 C 84.771 202.918,84.848 202.151,86.201 196.898 C 86.856 194.354,87.526 191.732,87.689 191.073 C 87.853 190.413,88.094 189.634,88.224 189.340 C 88.454 188.824,89.515 184.734,90.194 181.746 C 90.377 180.939,90.841 179.201,91.225 177.881 C 91.609 176.562,92.356 173.864,92.886 171.885 C 93.415 169.907,93.950 167.988,94.074 167.622 C 94.198 167.255,94.437 166.118,94.604 165.095 C 94.771 164.072,95.016 163.103,95.149 162.943 C 95.282 162.783,95.640 161.581,95.945 160.273 C 96.250 158.965,96.662 157.415,96.862 156.829 C 97.061 156.243,97.429 154.863,97.678 153.764 C 97.927 152.665,98.358 151.046,98.636 150.167 C 99.548 147.280,100.139 144.327,99.899 143.859 C 99.548 143.174,99.324 143.167,80.708 143.203 C 60.214 143.244,62.471 142.792,61.441 147.061 C 61.064 148.623,60.457 150.859,60.091 152.032 C 59.726 153.205,59.422 154.404,59.415 154.697 C 59.409 154.990,59.228 155.710,59.014 156.296 C 58.799 156.882,58.438 158.261,58.210 159.360 C 57.983 160.460,57.562 161.998,57.276 162.779 C 56.989 163.560,56.511 165.298,56.215 166.643 C 55.918 167.987,55.387 170.047,55.035 171.219 C 53.941 174.857,52.804 179.148,52.526 180.680 C 52.380 181.486,51.965 182.985,51.604 184.011 C 51.243 185.037,50.860 186.463,50.754 187.181 C 50.648 187.899,50.398 188.798,50.199 189.180 C 50.000 189.561,49.836 190.130,49.835 190.443 C 49.834 190.756,49.528 192.015,49.154 193.241 C 48.781 194.467,48.309 196.189,48.106 197.069 C 46.410 204.418,48.982 203.614,27.243 203.586 L 9.316 203.562 8.891 202.914 C 8.497 202.312,8.509 202.116,9.058 200.200 C 9.383 199.064,9.871 197.235,10.142 196.136 C 10.412 195.037,11.053 192.638,11.566 190.806 C 12.078 188.974,12.637 186.935,12.806 186.276 C 12.976 185.616,13.399 184.117,13.747 182.945 C 14.095 181.772,14.517 179.973,14.685 178.947 C 14.853 177.921,15.105 176.860,15.246 176.590 C 15.536 176.033,17.001 170.904,17.732 167.888 C 17.998 166.789,18.614 164.471,19.101 162.737 C 19.588 161.003,19.985 159.444,19.983 159.272 C 19.981 159.101,20.334 157.821,20.769 156.429 C 21.745 153.299,22.506 150.384,23.187 147.163 C 23.474 145.805,23.892 144.340,24.115 143.908 C 24.338 143.477,24.867 141.651,25.291 139.850 C 26.205 135.962,27.765 130.069,28.521 127.648 C 28.818 126.696,29.416 124.537,29.850 122.851 C 30.283 121.166,31.071 118.168,31.600 116.189 C 32.129 114.211,32.848 111.360,33.196 109.855 C 33.545 108.350,33.958 106.881,34.113 106.592 C 34.268 106.302,34.521 105.375,34.675 104.531 C 34.830 103.688,35.176 102.338,35.444 101.532 C 35.713 100.726,36.199 98.927,36.525 97.535 C 36.851 96.143,37.266 94.763,37.448 94.470 C 37.629 94.177,37.854 93.339,37.947 92.607 C 38.039 91.876,38.468 90.137,38.899 88.743 C 41.542 80.194,41.559 80.386,37.863 76.827 C 24.885 64.329,14.923 54.336,14.923 53.815 C 14.923 53.500,15.231 53.317,15.956 53.201 C 18.579 52.781,124.008 53.064,124.841 53.493 C 125.286 53.722,126.640 54.881,127.851 56.068 C 130.435 58.603,130.762 58.930,131.372 59.594 C 131.625 59.868,134.744 62.911,138.303 66.356 C 141.863 69.800,144.969 72.842,145.206 73.114 C 145.627 73.600,147.610 75.529,152.094 79.813 C 155.122 82.707,155.293 83.059,154.609 84.976 C 154.315 85.801,153.931 87.195,153.756 88.075 C 153.580 88.954,153.271 89.997,153.068 90.393 C 152.864 90.789,152.698 91.419,152.698 91.792 L 152.698 92.472 161.057 92.472 L 169.417 92.472 169.852 90.922 C 170.091 90.070,170.286 89.121,170.286 88.814 C 170.286 88.507,170.659 87.136,171.114 85.767 C 171.569 84.398,172.003 82.491,172.079 81.530 L 172.216 79.782 169.386 77.000 C 167.829 75.469,165.566 73.208,164.357 71.974 C 163.148 70.741,161.919 69.507,161.626 69.232 C 161.332 68.958,159.391 67.089,157.312 65.079 C 155.232 63.070,153.374 61.280,153.181 61.102 C 148.807 57.058,146.203 54.083,146.648 53.637 C 147.096 53.190,149.162 53.162,185.686 53.112 C 212.987 53.076,224.756 52.972,225.983 52.759 C 228.543 52.312,230.435 51.511,230.615 50.797 C 230.697 50.471,231.125 49.671,231.566 49.019 C 232.008 48.368,232.376 47.535,232.385 47.169 C 232.421 45.729,233.093 43.870,233.670 43.612 C 233.986 43.472,234.244 43.243,234.244 43.105 C 234.244 42.967,234.476 42.528,234.759 42.130 C 235.042 41.732,235.358 41.054,235.459 40.623 C 235.561 40.193,235.917 39.300,236.251 38.641 C 236.585 37.981,237.468 36.153,238.214 34.577 C 239.315 32.251,239.677 31.712,240.139 31.712 C 240.656 31.712,240.696 31.602,240.575 30.520 C 240.467 29.565,240.529 29.300,240.884 29.187 C 241.290 29.059,242.771 26.268,242.771 25.633 C 242.771 25.399,243.247 24.337,245.716 19.054 C 245.990 18.468,246.382 17.688,246.587 17.322 C 246.791 16.955,247.173 16.236,247.435 15.723 C 247.696 15.210,248.179 14.490,248.507 14.124 C 249.114 13.445,249.531 12.336,249.812 10.652 C 249.898 10.135,250.398 9.060,250.922 8.264 C 252.806 5.403,253.165 4.640,253.165 3.490 C 253.165 2.698,253.363 2.103,253.831 1.489 C 254.197 1.009,254.497 0.477,254.497 0.308 C 254.497 0.075,223.326 0.000,127.249 0.000 L 0.000 0.000 0.000 133.245 M79.390 83.486 C 78.894 83.820,78.405 84.390,78.302 84.752 C 78.200 85.114,77.932 86.129,77.706 87.009 C 77.480 87.888,77.000 89.747,76.640 91.139 C 76.280 92.532,75.806 94.390,75.586 95.270 C 74.819 98.332,73.824 101.899,73.434 102.978 C 73.219 103.575,72.841 105.023,72.595 106.196 C 72.349 107.368,72.000 108.628,71.820 108.994 C 71.152 110.349,71.080 112.385,71.677 112.983 C 72.210 113.516,72.487 113.524,89.682 113.524 C 109.351 113.524,108.825 113.572,109.136 111.746 C 109.231 111.185,109.424 110.306,109.563 109.793 C 109.703 109.280,110.171 107.542,110.602 105.929 C 111.620 102.127,112.007 100.740,112.684 98.468 C 112.990 97.442,113.615 95.163,114.073 93.404 C 114.531 91.646,115.068 89.607,115.265 88.874 C 116.590 83.964,116.604 83.556,115.469 83.124 C 115.098 82.983,107.467 82.878,97.557 82.878 L 80.292 82.878 79.390 83.486 M210.604 84.057 C 210.042 84.541,209.888 84.950,209.787 86.231 C 209.718 87.098,209.543 87.956,209.398 88.138 C 209.253 88.319,209.207 88.755,209.295 89.107 C 209.397 89.513,209.310 89.866,209.058 90.075 C 208.501 90.538,208.563 91.601,209.166 91.924 C 209.734 92.228,209.927 92.064,210.633 90.673 C 210.951 90.048,211.256 89.807,211.732 89.807 C 212.272 89.807,212.393 89.673,212.401 89.074 C 212.406 88.671,212.582 88.041,212.791 87.675 C 213.001 87.308,213.177 86.754,213.182 86.442 C 213.187 86.130,213.371 85.725,213.591 85.543 C 214.023 85.184,214.129 84.327,213.768 84.104 C 212.804 83.508,211.269 83.486,210.604 84.057 M152.032 99.265 C 151.885 99.314,151.436 99.427,151.033 99.515 C 150.480 99.637,150.300 99.835,150.300 100.322 C 150.300 100.676,150.013 101.903,149.662 103.048 C 148.145 108.003,148.043 108.485,148.452 108.744 C 148.873 109.011,163.077 109.090,164.361 108.833 C 165.054 108.695,165.187 108.526,165.335 107.601 C 165.430 107.011,165.845 105.494,166.259 104.230 C 167.387 100.781,167.474 99.699,166.648 99.385 C 166.055 99.159,152.678 99.049,152.032 99.265 M207.462 99.358 C 205.637 99.612,205.610 99.641,205.072 101.988 C 204.810 103.130,204.372 104.750,204.097 105.588 C 203.822 106.426,203.598 107.475,203.598 107.920 L 203.598 108.728 209.177 108.728 C 215.482 108.728,215.630 108.760,217.380 110.529 C 218.933 112.099,220.298 113.128,221.185 113.399 C 221.551 113.511,221.997 113.794,222.176 114.029 C 222.471 114.417,222.502 114.414,222.510 113.991 C 222.515 113.712,222.724 113.524,223.030 113.524 C 224.592 113.524,224.748 112.892,223.451 111.811 C 222.938 111.383,222.518 110.887,222.518 110.708 C 222.518 110.530,222.338 110.314,222.119 110.230 C 221.488 109.988,221.652 109.273,222.402 108.987 C 222.798 108.837,226.887 108.728,232.097 108.728 L 241.108 108.728 241.382 107.995 C 241.533 107.592,241.923 106.362,242.248 105.263 C 242.574 104.164,243.004 102.733,243.205 102.084 C 243.648 100.654,243.672 99.761,243.274 99.515 C 242.876 99.269,209.161 99.121,207.462 99.358 M157.961 120.370 C 157.693 120.440,157.495 120.745,157.495 121.088 C 157.495 121.416,157.319 121.916,157.104 122.201 C 156.889 122.485,156.708 123.138,156.702 123.651 C 156.697 124.164,156.507 124.939,156.281 125.373 C 156.054 125.807,155.845 126.767,155.816 127.505 L 155.763 128.847 157.570 128.826 C 159.646 128.801,159.899 128.630,160.178 127.062 C 160.290 126.432,160.644 124.957,160.966 123.784 C 161.914 120.328,161.915 120.551,160.950 120.358 C 160.019 120.172,158.700 120.177,157.961 120.370 M266.089 121.143 C 265.650 121.513,264.810 122.065,264.224 122.371 C 262.749 123.142,258.052 126.329,256.429 127.662 C 255.570 128.368,260.032 134.123,261.960 134.796 C 262.095 134.843,262.459 135.292,262.770 135.795 C 263.080 136.298,263.475 136.709,263.646 136.710 C 263.817 136.710,264.197 137.071,264.490 137.511 C 264.783 137.951,265.214 138.372,265.447 138.447 C 265.680 138.522,266.023 138.868,266.209 139.215 C 266.395 139.563,266.834 139.978,267.185 140.138 L 267.821 140.428 267.821 130.441 C 267.821 119.332,267.879 119.641,266.089 121.143 M152.659 140.085 C 152.407 140.152,152.166 140.565,152.093 141.054 C 152.023 141.522,151.840 142.265,151.687 142.705 C 151.339 143.703,150.875 145.497,150.515 147.235 C 150.363 147.968,150.080 148.987,149.886 149.500 C 149.693 150.013,149.460 151.000,149.369 151.693 C 149.278 152.385,149.104 153.014,148.983 153.088 C 148.862 153.163,148.679 153.796,148.578 154.494 C 148.476 155.192,148.222 156.028,148.014 156.353 C 147.805 156.678,147.633 157.337,147.631 157.819 C 147.623 159.510,147.733 159.481,140.862 159.627 C 137.081 159.707,134.493 159.869,134.327 160.036 C 134.057 160.306,133.452 162.407,132.409 166.689 C 132.123 167.861,131.774 169.031,131.632 169.287 C 131.389 169.727,131.865 169.753,139.999 169.753 L 148.623 169.753 149.350 167.155 C 150.906 161.595,151.099 160.846,151.099 160.360 C 151.099 160.084,151.246 159.596,151.425 159.276 C 151.604 158.956,151.777 158.454,151.808 158.161 C 151.934 156.967,152.453 154.969,152.701 154.721 C 152.846 154.576,152.965 154.200,152.965 153.886 C 152.965 153.572,153.187 152.666,153.460 151.874 C 153.732 151.081,154.398 148.634,154.940 146.436 C 155.482 144.237,156.039 142.230,156.177 141.976 C 156.997 140.468,155.086 139.440,152.659 140.085 M221.059 143.094 C 220.965 143.246,220.597 143.371,220.243 143.371 C 219.752 143.371,219.561 143.547,219.448 144.104 C 219.366 144.507,219.124 145.176,218.910 145.591 C 218.696 146.006,218.521 146.700,218.521 147.132 C 218.521 147.565,218.359 148.306,218.161 148.780 C 217.963 149.255,217.712 150.236,217.603 150.961 C 217.494 151.686,217.237 152.520,217.030 152.815 C 216.824 153.109,216.656 153.739,216.656 154.214 C 216.656 154.690,216.482 155.472,216.271 155.954 C 216.059 156.435,215.816 157.266,215.731 157.801 C 215.478 159.387,215.423 159.399,208.813 159.371 C 201.389 159.339,201.233 159.287,202.128 157.147 C 202.350 156.615,202.532 155.843,202.532 155.431 C 202.532 155.019,202.695 154.446,202.895 154.157 C 203.095 153.867,203.344 152.943,203.447 152.103 C 203.550 151.262,203.735 150.513,203.858 150.437 C 203.980 150.361,204.167 149.673,204.272 148.907 C 204.377 148.141,204.618 147.272,204.807 146.975 C 204.996 146.678,205.177 145.896,205.210 145.237 C 205.326 142.859,205.826 143.066,200.120 143.129 L 195.043 143.184 194.619 144.002 C 194.387 144.452,194.047 145.484,193.865 146.294 C 193.683 147.105,193.410 148.128,193.258 148.568 C 192.885 149.644,192.424 151.488,192.134 153.056 C 192.004 153.766,191.788 154.485,191.655 154.655 C 191.522 154.825,191.341 155.503,191.254 156.163 C 191.081 157.467,190.190 159.521,189.730 159.675 C 189.419 159.778,188.304 163.547,188.009 165.490 C 187.909 166.149,187.658 167.203,187.451 167.831 C 187.244 168.459,187.075 169.148,187.075 169.363 C 187.075 169.702,189.572 169.753,206.129 169.753 C 224.738 169.753,225.183 169.742,225.183 169.242 C 225.183 168.611,225.860 165.887,226.540 163.780 C 226.820 162.913,227.049 161.858,227.049 161.436 C 227.049 161.014,227.339 160.123,227.694 159.456 C 228.151 158.598,228.298 157.989,228.198 157.370 C 228.116 156.868,228.181 156.419,228.351 156.315 C 228.885 155.984,227.937 154.674,225.181 151.935 C 222.326 149.098,221.895 148.110,222.893 146.686 C 223.231 146.202,223.416 145.044,223.345 143.855 C 223.330 143.609,223.048 143.329,222.718 143.235 C 222.388 143.140,221.919 143.007,221.675 142.939 C 221.430 142.872,221.154 142.941,221.059 143.094 M267.188 154.538 C 266.913 155.358,266.480 156.989,266.226 158.161 C 265.972 159.334,265.463 161.088,265.096 162.060 C 264.728 163.032,264.280 164.651,264.100 165.658 C 263.920 166.665,263.605 167.882,263.399 168.363 C 262.819 169.719,262.867 169.753,265.298 169.753 C 268.106 169.753,267.844 170.680,267.759 161.064 L 267.688 153.047 267.188 154.538 " stroke="none" fill="#050504" fill-rule="evenodd"></path><path id="path4" d="M254.497 0.308 C 254.497 0.477,254.197 1.009,253.831 1.489 C 253.363 2.103,253.165 2.698,253.165 3.490 C 253.165 4.640,252.806 5.403,250.922 8.264 C 250.398 9.060,249.898 10.135,249.812 10.652 C 249.531 12.336,249.114 13.445,248.507 14.124 C 248.179 14.490,247.696 15.210,247.435 15.723 C 247.173 16.236,246.791 16.955,246.587 17.322 C 246.382 17.688,245.990 18.468,245.716 19.054 C 243.247 24.337,242.771 25.399,242.771 25.633 C 242.771 26.268,241.290 29.059,240.884 29.187 C 240.529 29.300,240.467 29.565,240.575 30.520 C 240.696 31.602,240.656 31.712,240.139 31.712 C 239.677 31.712,239.315 32.251,238.214 34.577 C 237.468 36.153,236.585 37.981,236.251 38.641 C 235.917 39.300,235.561 40.193,235.459 40.623 C 235.358 41.054,235.042 41.732,234.759 42.130 C 234.476 42.528,234.244 42.967,234.244 43.105 C 234.244 43.243,233.986 43.472,233.670 43.612 C 233.093 43.870,232.421 45.729,232.385 47.169 C 232.376 47.535,232.008 48.368,231.566 49.019 C 231.125 49.671,230.697 50.471,230.615 50.797 C 230.435 51.511,228.543 52.312,225.983 52.759 C 224.756 52.972,212.987 53.076,185.686 53.112 C 149.162 53.162,147.096 53.190,146.648 53.637 C 146.203 54.083,148.807 57.058,153.181 61.102 C 153.374 61.280,155.232 63.070,157.312 65.079 C 159.391 67.089,161.332 68.958,161.626 69.232 C 161.919 69.507,163.148 70.741,164.357 71.974 C 165.566 73.208,167.829 75.469,169.386 77.000 L 172.216 79.782 172.077 81.530 C 172.001 82.491,171.581 84.417,171.144 85.809 C 170.706 87.202,170.220 89.001,170.062 89.807 C 169.904 90.613,169.702 91.517,169.614 91.816 C 169.460 92.341,173.969 92.596,174.760 92.107 C 175.253 91.803,207.625 91.862,207.931 92.168 C 208.768 93.005,212.925 91.969,212.925 90.924 C 212.925 90.648,213.165 90.205,213.458 89.940 C 213.751 89.675,213.991 89.260,213.991 89.019 C 213.991 88.417,214.519 87.941,215.190 87.941 C 215.669 87.941,215.734 87.812,215.643 87.035 C 215.566 86.372,215.688 85.978,216.096 85.569 C 217.051 84.615,216.818 84.106,215.123 83.442 C 211.456 82.004,211.144 81.728,212.105 80.767 C 212.409 80.462,212.658 80.097,212.658 79.956 C 212.658 79.814,213.018 79.131,213.458 78.438 C 213.897 77.745,214.257 77.009,214.257 76.804 C 214.257 76.137,215.035 74.775,216.038 73.684 C 216.670 72.998,217.239 71.955,217.639 70.753 C 217.980 69.727,218.660 68.048,219.151 67.022 C 219.642 65.996,220.629 63.672,221.344 61.857 C 222.199 59.689,222.851 58.422,223.246 58.163 C 223.576 57.947,223.794 57.686,223.730 57.582 C 223.667 57.479,223.847 57.043,224.131 56.612 C 224.414 56.182,224.648 55.680,224.648 55.496 C 224.653 54.551,229.673 52.439,233.511 51.767 C 234.336 51.622,234.350 51.596,233.969 50.883 C 233.754 50.482,233.821 50.196,234.273 49.585 C 234.710 48.994,234.815 48.573,234.701 47.871 C 234.504 46.658,234.713 45.915,235.294 45.763 C 235.647 45.671,235.732 45.442,235.641 44.825 C 235.550 44.204,235.655 43.926,236.082 43.659 C 236.390 43.467,236.642 43.166,236.642 42.990 C 236.642 42.304,238.767 38.205,239.449 37.575 C 240.693 36.425,241.498 34.907,241.597 33.521 C 241.673 32.458,241.838 32.099,242.516 31.529 C 243.145 30.999,243.306 30.687,243.188 30.218 C 243.087 29.817,243.359 28.906,243.968 27.605 C 244.483 26.506,244.903 25.446,244.903 25.249 C 244.903 25.052,245.230 24.386,245.629 23.771 C 246.300 22.737,246.599 22.546,247.502 22.580 C 247.901 22.595,247.947 21.953,247.564 21.716 C 247.415 21.624,247.363 21.436,247.448 21.299 C 247.534 21.159,247.780 21.227,248.006 21.453 C 248.594 22.040,248.980 21.658,248.780 20.688 C 248.282 18.264,248.287 18.052,248.846 17.615 C 249.494 17.109,250.744 14.618,251.456 12.415 C 251.773 11.434,252.378 10.379,253.059 9.617 C 254.300 8.229,255.030 6.943,255.030 6.142 C 255.030 5.831,255.204 5.596,255.436 5.596 C 256.086 5.596,256.451 4.291,256.116 3.167 C 255.737 1.893,255.743 1.865,256.369 1.865 C 256.856 1.865,257.428 0.993,257.428 0.249 C 257.428 0.112,256.769 0.000,255.963 0.000 C 255.032 0.000,254.497 0.112,254.497 0.308 M236.793 43.943 C 236.615 44.231,237.389 44.568,237.737 44.353 C 237.872 44.269,237.914 44.089,237.830 43.952 C 237.635 43.636,236.986 43.630,236.793 43.943 M15.656 53.223 C 15.179 53.295,14.923 53.495,14.923 53.798 C 14.923 54.335,24.733 64.183,37.863 76.827 C 41.559 80.386,41.542 80.194,38.899 88.743 C 38.468 90.137,38.039 91.876,37.947 92.607 C 37.854 93.339,37.629 94.177,37.448 94.470 C 37.266 94.763,36.851 96.143,36.525 97.535 C 36.199 98.927,35.713 100.726,35.444 101.532 C 35.176 102.338,34.830 103.688,34.675 104.531 C 34.521 105.375,34.268 106.302,34.113 106.592 C 33.958 106.881,33.545 108.350,33.196 109.855 C 32.848 111.360,32.129 114.211,31.600 116.189 C 31.071 118.168,30.283 121.166,29.850 122.851 C 29.416 124.537,28.818 126.696,28.521 127.648 C 27.765 130.069,26.205 135.962,25.291 139.850 C 24.867 141.651,24.338 143.477,24.115 143.908 C 23.892 144.340,23.474 145.805,23.187 147.163 C 22.506 150.384,21.745 153.299,20.769 156.429 C 20.334 157.821,19.981 159.101,19.983 159.272 C 19.985 159.444,19.588 161.003,19.101 162.737 C 18.614 164.471,17.998 166.789,17.732 167.888 C 17.001 170.904,15.536 176.033,15.246 176.590 C 15.105 176.860,14.853 177.921,14.685 178.947 C 14.517 179.973,14.095 181.772,13.747 182.945 C 13.399 184.117,12.976 185.616,12.806 186.276 C 12.637 186.935,12.078 188.974,11.566 190.806 C 11.053 192.638,10.412 195.037,10.142 196.136 C 9.871 197.235,9.383 199.064,9.058 200.200 C 8.509 202.116,8.497 202.312,8.891 202.914 L 9.316 203.562 27.243 203.586 C 48.982 203.614,46.410 204.418,48.106 197.069 C 48.309 196.189,48.781 194.467,49.154 193.241 C 49.528 192.015,49.834 190.756,49.835 190.443 C 49.836 190.130,50.000 189.561,50.199 189.180 C 50.398 188.798,50.648 187.899,50.754 187.181 C 50.860 186.463,51.243 185.037,51.604 184.011 C 51.965 182.985,52.380 181.486,52.526 180.680 C 52.804 179.148,53.941 174.857,55.035 171.219 C 55.387 170.047,55.918 167.987,56.215 166.643 C 56.511 165.298,56.989 163.560,57.276 162.779 C 57.562 161.998,57.983 160.460,58.210 159.360 C 58.438 158.261,58.799 156.882,59.014 156.296 C 59.228 155.710,59.409 154.990,59.415 154.697 C 59.422 154.404,59.726 153.205,60.091 152.032 C 60.457 150.859,61.064 148.623,61.441 147.061 C 62.471 142.792,60.214 143.244,80.708 143.203 C 99.324 143.167,99.548 143.174,99.899 143.859 C 100.139 144.327,99.548 147.280,98.636 150.167 C 98.358 151.046,97.927 152.665,97.678 153.764 C 97.429 154.863,97.061 156.243,96.862 156.829 C 96.662 157.415,96.250 158.965,95.945 160.273 C 95.640 161.581,95.282 162.783,95.149 162.943 C 95.016 163.103,94.771 164.072,94.604 165.095 C 94.437 166.118,94.198 167.255,94.074 167.622 C 93.950 167.988,93.415 169.907,92.886 171.885 C 92.356 173.864,91.609 176.562,91.225 177.881 C 90.841 179.201,90.377 180.939,90.194 181.746 C 89.515 184.734,88.454 188.824,88.224 189.340 C 88.094 189.634,87.853 190.413,87.689 191.073 C 87.526 191.732,86.856 194.354,86.201 196.898 C 84.848 202.151,84.771 202.918,85.554 203.337 C 85.940 203.544,91.280 203.580,104.008 203.462 L 121.919 203.296 122.540 202.686 C 122.986 202.248,123.337 201.299,123.787 199.306 C 124.132 197.782,124.959 194.497,125.624 192.005 C 126.749 187.798,127.337 185.659,129.065 179.512 C 129.431 178.210,129.891 177.032,130.088 176.896 C 130.328 176.729,130.226 176.708,129.780 176.831 C 129.414 176.931,128.953 177.143,128.755 177.302 C 128.217 177.734,124.908 177.548,124.641 177.070 C 124.522 176.857,124.136 176.682,123.783 176.682 C 121.969 176.682,121.331 175.715,122.489 174.719 L 123.192 174.114 123.151 136.558 C 123.122 110.622,123.017 98.354,122.813 96.910 C 122.423 94.159,122.774 92.794,123.931 92.562 C 124.363 92.476,124.717 92.245,124.717 92.049 C 124.717 91.843,125.025 91.687,125.450 91.677 C 127.514 91.629,129.036 91.425,129.363 91.154 C 129.624 90.937,129.756 90.934,129.826 91.142 C 130.011 91.698,132.021 91.901,137.883 91.959 C 148.061 92.059,150.670 92.130,151.699 92.333 C 152.653 92.522,152.698 92.499,152.698 91.822 C 152.698 91.432,152.864 90.789,153.068 90.393 C 153.271 89.997,153.580 88.954,153.756 88.075 C 153.931 87.195,154.315 85.801,154.609 84.976 C 155.293 83.059,155.122 82.707,152.094 79.813 C 147.610 75.529,145.627 73.600,145.206 73.114 C 144.969 72.842,141.863 69.800,138.303 66.356 C 134.744 62.911,131.625 59.868,131.372 59.594 C 130.762 58.930,130.435 58.603,127.851 56.068 C 126.640 54.881,125.286 53.722,124.841 53.493 C 124.078 53.101,18.214 52.839,15.656 53.223 M115.469 83.124 C 116.604 83.556,116.590 83.964,115.265 88.874 C 115.068 89.607,114.531 91.646,114.073 93.404 C 113.615 95.163,112.990 97.442,112.684 98.468 C 112.007 100.740,111.620 102.127,110.602 105.929 C 110.171 107.542,109.703 109.280,109.563 109.793 C 109.424 110.306,109.231 111.185,109.136 111.746 C 108.825 113.572,109.351 113.524,89.682 113.524 C 72.487 113.524,72.210 113.516,71.677 112.983 C 71.080 112.385,71.152 110.349,71.820 108.994 C 72.000 108.628,72.349 107.368,72.595 106.196 C 72.841 105.023,73.219 103.575,73.434 102.978 C 73.824 101.899,74.819 98.332,75.586 95.270 C 75.806 94.390,76.280 92.532,76.640 91.139 C 77.000 89.747,77.480 87.888,77.706 87.009 C 77.932 86.129,78.200 85.114,78.302 84.752 C 78.405 84.390,78.894 83.820,79.390 83.486 L 80.292 82.878 97.557 82.878 C 107.467 82.878,115.098 82.983,115.469 83.124 M213.768 84.104 C 214.129 84.327,214.023 85.184,213.591 85.543 C 213.371 85.725,213.187 86.130,213.182 86.442 C 213.177 86.754,213.001 87.308,212.791 87.675 C 212.582 88.041,212.406 88.671,212.401 89.074 C 212.393 89.673,212.272 89.807,211.732 89.807 C 211.256 89.807,210.951 90.048,210.633 90.673 C 209.927 92.064,209.734 92.228,209.166 91.924 C 208.563 91.601,208.501 90.538,209.058 90.075 C 209.310 89.866,209.397 89.513,209.295 89.107 C 209.207 88.755,209.253 88.319,209.398 88.138 C 209.543 87.956,209.718 87.098,209.787 86.231 C 209.980 83.784,211.734 82.847,213.768 84.104 M150.300 99.400 C 149.933 99.518,145.724 99.626,140.946 99.640 C 131.384 99.670,130.419 99.791,130.705 100.931 C 130.811 101.352,130.724 101.758,130.468 102.041 C 129.844 102.731,129.807 166.197,130.430 167.680 C 130.659 168.225,130.846 168.914,130.846 169.212 C 130.846 170.878,131.648 169.605,132.351 166.822 C 133.581 161.954,134.062 160.302,134.327 160.036 C 134.493 159.869,137.081 159.707,140.862 159.627 C 147.769 159.480,147.660 159.510,147.588 157.761 L 147.550 156.829 147.444 157.761 C 147.268 159.322,147.098 159.360,140.371 159.360 C 133.278 159.360,132.993 159.294,133.781 157.825 C 134.074 157.278,134.310 156.325,134.310 155.692 C 134.310 154.971,134.445 154.495,134.674 154.407 C 134.896 154.322,135.102 153.644,135.205 152.665 C 135.297 151.784,135.553 150.804,135.774 150.488 C 135.997 150.170,136.176 149.344,136.176 148.633 C 136.176 147.740,136.297 147.305,136.576 147.198 C 136.862 147.089,136.975 146.642,136.975 145.627 C 136.975 144.790,137.123 144.061,137.336 143.848 C 137.535 143.649,137.784 142.905,137.891 142.193 C 137.998 141.481,138.249 140.526,138.449 140.070 C 138.649 139.614,138.886 138.674,138.975 137.981 C 139.065 137.288,139.251 136.651,139.389 136.566 C 139.527 136.481,139.641 135.968,139.642 135.427 C 139.643 134.886,139.806 134.132,140.005 133.750 C 140.205 133.369,140.447 132.526,140.544 131.878 C 140.641 131.229,140.881 130.390,141.077 130.012 C 141.273 129.635,141.517 128.768,141.619 128.086 C 141.722 127.404,141.977 126.517,142.187 126.114 C 142.397 125.712,142.569 125.056,142.570 124.656 C 142.571 124.256,142.742 123.476,142.950 122.923 C 143.158 122.371,143.400 121.199,143.487 120.320 L 143.645 118.721 142.242 117.246 C 141.471 116.435,139.589 114.601,138.060 113.172 C 135.435 110.718,135.295 110.533,135.535 109.850 L 135.789 109.127 141.379 109.050 C 144.453 109.008,147.688 109.088,148.568 109.229 C 150.059 109.468,163.248 109.199,168.399 108.824 C 171.823 108.575,174.814 109.741,174.816 111.326 C 174.817 111.509,175.000 111.659,175.225 111.659 C 175.449 111.659,175.702 111.839,175.786 112.059 C 175.871 112.278,176.107 112.458,176.311 112.458 C 176.515 112.458,176.682 112.594,176.682 112.759 C 176.682 113.103,179.831 116.189,180.182 116.189 C 180.309 116.189,180.413 116.369,180.413 116.589 C 180.413 116.809,180.533 116.989,180.680 116.989 C 181.825 116.989,183.347 119.729,182.687 120.602 C 182.471 120.886,182.292 121.515,182.287 121.999 C 182.282 122.482,182.113 123.202,181.910 123.598 C 181.708 123.993,181.456 124.857,181.352 125.516 C 181.247 126.176,180.993 126.981,180.787 127.306 C 180.581 127.630,180.413 128.417,180.413 129.054 C 180.413 129.690,180.237 130.444,180.022 130.729 C 179.807 131.013,179.621 131.546,179.610 131.912 C 179.599 132.278,179.405 133.058,179.180 133.644 C 178.954 134.231,178.654 135.364,178.513 136.163 C 178.372 136.962,178.158 137.742,178.036 137.895 C 177.915 138.049,177.729 138.770,177.624 139.497 C 177.518 140.225,177.263 141.061,177.057 141.356 C 176.851 141.650,176.682 142.377,176.682 142.971 C 176.682 143.566,176.519 144.289,176.319 144.578 C 176.120 144.867,175.868 145.699,175.761 146.426 C 175.654 147.154,175.398 147.990,175.192 148.284 C 174.985 148.579,174.817 149.384,174.817 150.074 C 174.817 150.833,174.659 151.485,174.417 151.727 C 174.197 151.947,174.017 152.491,174.017 152.936 C 174.017 153.381,173.848 154.259,173.641 154.887 C 173.435 155.515,173.185 156.535,173.086 157.154 C 172.988 157.773,172.669 158.582,172.377 158.953 L 171.847 159.627 165.496 159.627 L 159.146 159.627 158.859 158.803 C 158.626 158.136,158.677 157.668,159.125 156.338 C 159.430 155.435,159.780 154.157,159.903 153.498 C 160.233 151.731,160.703 150.007,161.101 149.101 C 161.294 148.661,161.505 147.659,161.569 146.874 C 161.633 146.089,161.811 145.369,161.963 145.275 C 162.116 145.180,162.372 144.389,162.534 143.517 C 162.695 142.644,162.946 141.811,163.092 141.665 C 163.544 141.213,163.407 140.176,162.891 140.149 C 162.635 140.135,161.286 140.094,159.893 140.057 C 158.501 140.020,156.582 139.849,155.630 139.676 C 153.905 139.363,152.573 139.462,152.288 139.924 C 152.201 140.065,152.633 140.099,153.317 140.005 C 155.628 139.688,156.932 140.587,156.177 141.976 C 156.039 142.230,155.482 144.237,154.940 146.436 C 154.398 148.634,153.732 151.081,153.460 151.874 C 153.187 152.666,152.965 153.572,152.965 153.886 C 152.965 154.200,152.846 154.576,152.701 154.721 C 152.453 154.969,151.934 156.967,151.808 158.161 C 151.777 158.454,151.604 158.956,151.425 159.276 C 151.246 159.596,151.099 160.084,151.099 160.360 C 151.099 160.854,150.775 162.112,149.374 167.049 C 148.591 169.807,148.613 169.965,149.712 169.510 C 150.279 169.275,154.435 169.218,165.910 169.289 C 174.400 169.341,182.185 169.304,183.211 169.207 C 184.599 169.077,185.301 169.133,185.952 169.427 C 186.434 169.645,186.866 169.778,186.912 169.722 C 187.065 169.536,187.643 167.247,188.014 165.356 C 188.565 162.553,189.399 159.785,189.726 159.676 C 190.184 159.524,191.079 157.481,191.261 156.176 C 191.352 155.523,191.586 154.684,191.781 154.310 C 191.976 153.937,192.136 153.316,192.137 152.931 C 192.138 152.545,192.318 151.800,192.538 151.274 C 192.758 150.747,192.930 150.043,192.920 149.709 C 192.900 148.990,191.916 151.748,191.890 152.599 C 191.880 152.911,191.692 153.597,191.472 154.123 C 191.252 154.649,191.073 155.335,191.073 155.647 C 191.073 155.960,190.901 156.593,190.691 157.055 C 190.481 157.517,190.270 158.132,190.222 158.421 C 190.050 159.463,189.117 159.619,183.025 159.623 C 178.081 159.626,177.208 159.567,177.011 159.215 C 176.643 158.556,177.651 153.392,178.447 151.858 C 178.649 151.469,178.814 150.746,178.814 150.251 C 178.814 149.757,178.976 149.116,179.174 148.827 C 179.372 148.538,179.609 147.651,179.700 146.856 C 179.791 146.060,179.997 145.329,180.157 145.230 C 180.317 145.131,180.538 144.403,180.647 143.611 C 180.757 142.819,180.989 141.910,181.163 141.590 C 181.337 141.270,181.479 140.636,181.479 140.182 C 181.479 139.728,181.645 138.959,181.849 138.472 C 182.052 137.985,182.305 137.060,182.411 136.415 C 182.516 135.771,182.754 135.063,182.939 134.843 C 183.123 134.624,183.343 133.737,183.427 132.873 C 183.511 132.010,183.707 131.176,183.862 131.021 C 184.017 130.866,184.144 130.461,184.144 130.120 C 184.144 129.779,184.384 128.818,184.677 127.984 C 184.970 127.150,185.210 126.070,185.210 125.584 C 185.210 125.044,185.365 124.640,185.610 124.547 C 185.890 124.439,186.009 124.003,186.009 123.088 C 186.009 122.293,186.217 121.396,186.542 120.789 C 187.437 119.120,187.363 118.995,182.948 114.688 C 176.246 108.150,175.148 108.582,197.847 108.825 C 217.136 109.031,215.377 108.809,217.759 111.341 C 218.439 112.064,219.908 113.293,221.023 114.072 C 222.139 114.850,223.051 115.591,223.051 115.717 C 223.051 115.843,223.638 116.486,224.355 117.147 C 225.072 117.807,225.716 118.645,225.785 119.008 C 225.948 119.858,225.521 122.158,225.179 122.274 C 225.035 122.323,224.917 122.776,224.917 123.282 C 224.917 123.787,224.745 124.612,224.535 125.115 C 224.325 125.618,224.070 126.583,223.968 127.260 C 223.867 127.936,223.619 128.553,223.418 128.631 C 223.216 128.708,223.051 129.058,223.051 129.409 C 223.051 129.760,222.938 130.047,222.799 130.047 C 222.660 130.047,222.222 130.346,221.827 130.713 C 221.432 131.079,220.886 131.379,220.614 131.379 C 220.342 131.379,220.118 131.469,220.115 131.579 C 220.112 131.689,219.515 132.139,218.787 132.578 C 218.060 133.018,217.463 133.468,217.460 133.578 C 217.457 133.688,217.282 133.777,217.071 133.777 C 216.164 133.777,216.494 134.408,218.379 136.275 L 220.386 138.263 220.385 139.951 C 220.383 141.187,220.241 141.853,219.853 142.438 C 219.562 142.878,219.333 143.418,219.343 143.638 C 219.356 143.910,219.405 143.932,219.497 143.704 C 219.571 143.521,219.897 143.371,220.222 143.371 C 220.547 143.371,220.930 143.254,221.074 143.110 C 221.245 142.939,221.679 142.944,222.326 143.122 C 223.350 143.405,223.388 143.482,223.354 145.237 C 223.328 146.596,224.070 143.461,224.290 141.283 C 224.395 140.238,224.598 139.541,224.822 139.455 C 225.043 139.371,225.183 138.903,225.183 138.253 C 225.183 137.668,225.353 136.811,225.560 136.349 C 225.768 135.888,225.989 134.890,226.052 134.133 C 226.118 133.340,226.354 132.569,226.608 132.315 C 226.896 132.027,227.049 131.430,227.049 130.593 C 227.049 129.833,227.197 129.189,227.414 129.009 C 227.616 128.842,227.861 127.991,227.960 127.119 C 228.058 126.246,228.250 125.464,228.386 125.380 C 228.521 125.296,228.711 124.635,228.807 123.911 C 228.903 123.187,229.146 122.458,229.348 122.290 C 229.549 122.123,229.722 121.492,229.732 120.887 C 229.743 120.282,229.844 119.550,229.957 119.260 C 230.162 118.734,229.732 118.161,227.169 115.551 C 226.723 115.096,225.943 114.188,225.437 113.533 C 224.931 112.878,224.007 111.832,223.384 111.208 C 222.014 109.836,221.949 109.331,223.118 109.152 C 224.190 108.987,253.785 108.586,256.881 108.694 L 259.132 108.773 262.426 112.015 C 264.239 113.798,265.924 115.328,266.172 115.416 C 266.420 115.504,266.694 115.924,266.781 116.349 C 266.868 116.774,266.908 115.743,266.871 114.057 C 266.833 112.372,266.762 108.714,266.712 105.929 L 266.622 100.866 265.717 100.780 C 265.218 100.732,264.559 100.535,264.251 100.341 C 263.826 100.073,261.403 99.952,254.231 99.838 C 249.027 99.755,244.448 99.611,244.055 99.516 C 243.419 99.364,243.357 99.409,243.492 99.925 C 243.575 100.245,243.432 101.246,243.173 102.152 C 242.468 104.618,241.684 107.170,241.379 107.995 L 241.108 108.728 232.097 108.728 C 226.887 108.728,222.798 108.837,222.402 108.987 C 221.652 109.273,221.488 109.988,222.119 110.230 C 222.338 110.314,222.518 110.530,222.518 110.708 C 222.518 110.887,222.938 111.383,223.451 111.811 C 224.748 112.892,224.592 113.524,223.030 113.524 C 222.724 113.524,222.515 113.712,222.510 113.991 C 222.502 114.414,222.471 114.417,222.176 114.029 C 221.997 113.794,221.551 113.511,221.185 113.399 C 220.298 113.128,218.933 112.099,217.380 110.529 C 215.630 108.760,215.482 108.728,209.177 108.728 L 203.598 108.728 203.598 107.920 C 203.598 107.475,203.821 106.426,204.094 105.588 C 204.367 104.750,204.798 103.165,205.050 102.065 C 205.303 100.966,205.709 99.902,205.953 99.701 C 206.341 99.381,206.282 99.357,205.478 99.505 C 203.887 99.799,168.559 99.706,167.770 99.406 C 166.863 99.061,165.878 99.055,166.732 99.400 C 167.465 99.696,167.346 100.906,166.259 104.230 C 165.845 105.494,165.430 107.011,165.335 107.601 C 165.187 108.526,165.054 108.695,164.361 108.833 C 163.077 109.090,148.873 109.011,148.452 108.744 C 148.043 108.485,148.145 108.003,149.662 103.048 C 150.013 101.903,150.300 100.676,150.300 100.322 C 150.300 99.835,150.480 99.637,151.033 99.515 C 152.197 99.259,152.346 99.176,151.632 99.182 C 151.266 99.185,150.666 99.283,150.300 99.400 M206.995 99.322 C 207.325 99.385,207.865 99.385,208.195 99.322 C 208.524 99.258,208.254 99.206,207.595 99.206 C 206.935 99.206,206.666 99.258,206.995 99.322 M236.187 99.332 C 237.182 99.383,238.741 99.383,239.651 99.331 C 240.561 99.279,239.747 99.237,237.841 99.237 C 235.936 99.238,235.192 99.280,236.187 99.332 M266.545 119.272 C 266.258 119.591,264.465 119.654,255.668 119.654 C 243.063 119.654,243.805 119.414,242.876 123.784 C 242.658 124.810,242.325 126.369,242.137 127.249 C 241.949 128.128,241.655 129.110,241.484 129.430 C 241.313 129.750,241.173 130.356,241.173 130.778 C 241.173 131.199,240.996 131.776,240.781 132.061 C 240.566 132.346,240.386 132.911,240.382 133.318 C 240.377 133.725,240.133 134.740,239.840 135.574 C 239.547 136.408,239.307 137.349,239.307 137.666 C 239.307 137.983,239.127 138.392,238.907 138.574 C 238.658 138.781,238.507 139.370,238.506 140.139 C 238.505 140.817,238.338 141.691,238.135 142.081 C 237.931 142.471,237.678 143.430,237.571 144.213 C 237.464 144.996,237.268 145.706,237.134 145.791 C 236.999 145.876,236.818 146.386,236.731 146.924 L 236.573 147.901 248.558 147.901 C 259.763 147.901,260.572 147.933,260.978 148.381 C 261.434 148.885,261.193 150.616,260.616 150.972 C 260.475 151.059,260.360 151.615,260.360 152.207 C 260.360 152.799,260.190 153.662,259.983 154.124 C 259.636 154.899,259.248 156.541,259.186 157.495 C 259.059 159.467,258.703 159.513,244.687 159.360 L 232.465 159.227 231.144 157.895 C 230.417 157.162,229.393 156.023,228.867 155.363 C 228.341 154.704,226.758 153.030,225.348 151.643 C 222.787 149.125,222.107 147.819,223.051 147.235 C 223.198 147.145,223.314 146.868,223.309 146.620 C 223.291 145.622,222.518 147.210,222.518 148.247 C 222.518 149.213,222.713 149.483,225.181 151.935 C 227.937 154.674,228.885 155.984,228.351 156.315 C 228.181 156.419,228.116 156.868,228.198 157.370 C 228.298 157.989,228.151 158.598,227.694 159.456 C 227.339 160.123,227.049 161.014,227.049 161.436 C 227.049 161.858,226.820 162.913,226.540 163.780 C 225.103 168.232,224.887 169.902,225.783 169.642 C 227.043 169.276,230.599 169.185,245.703 169.129 C 254.277 169.097,261.562 168.971,261.892 168.848 C 262.395 168.661,262.492 168.716,262.492 169.189 C 262.492 170.915,263.562 168.552,264.092 165.658 C 264.277 164.651,264.728 163.032,265.096 162.060 C 265.463 161.088,265.972 159.334,266.225 158.161 C 266.479 156.989,266.960 155.218,267.293 154.226 C 267.897 152.429,267.898 152.417,267.421 150.395 C 266.907 148.211,266.999 142.221,267.556 141.665 C 268.025 141.196,267.840 140.437,267.185 140.138 C 266.834 139.978,266.395 139.563,266.209 139.215 C 266.023 138.868,265.680 138.522,265.447 138.447 C 265.214 138.372,264.783 137.951,264.490 137.511 C 264.197 137.071,263.817 136.710,263.646 136.710 C 263.475 136.709,263.080 136.298,262.770 135.795 C 262.459 135.292,262.095 134.843,261.960 134.796 C 260.032 134.123,255.570 128.368,256.429 127.662 C 258.021 126.355,262.766 123.130,264.091 122.454 C 264.604 122.193,265.460 121.636,265.994 121.216 C 266.528 120.796,267.158 120.453,267.393 120.453 C 267.938 120.453,267.927 120.201,267.349 119.472 C 266.954 118.974,266.840 118.945,266.545 119.272 M157.562 120.213 C 157.378 120.404,157.229 120.768,157.229 121.024 C 157.229 121.279,157.109 121.562,156.962 121.652 C 156.815 121.743,156.699 122.020,156.704 122.268 C 156.718 122.992,157.495 121.826,157.495 121.080 C 157.495 120.339,158.730 120.032,160.589 120.310 C 161.979 120.519,161.945 120.213,160.966 123.784 C 160.644 124.957,160.290 126.432,160.178 127.062 C 159.954 128.321,159.757 128.601,158.961 128.788 C 158.668 128.857,160.047 128.859,162.025 128.793 C 166.573 128.641,166.753 128.558,166.983 126.525 C 167.081 125.658,167.305 124.805,167.480 124.630 C 167.655 124.455,167.876 123.746,167.970 123.055 C 168.065 122.363,168.291 121.560,168.472 121.270 C 168.952 120.501,168.779 120.446,165.592 120.342 C 163.997 120.290,161.612 120.162,160.293 120.057 C 158.471 119.913,157.815 119.950,157.562 120.213 M201.035 120.370 C 200.557 120.464,200.449 120.724,200.327 122.076 C 200.247 122.953,200.040 123.842,199.867 124.051 C 199.693 124.260,199.505 124.919,199.447 125.516 C 199.390 126.113,199.221 126.829,199.072 127.107 C 198.229 128.682,198.326 128.714,203.982 128.714 C 207.837 128.714,209.216 128.629,209.372 128.381 C 209.747 127.785,210.467 125.412,210.646 124.184 C 210.742 123.524,211.010 122.541,211.240 122.000 C 211.981 120.261,211.828 120.187,207.523 120.187 C 205.129 120.187,203.596 120.295,203.414 120.476 C 203.206 120.685,203.075 120.685,202.946 120.476 C 202.769 120.190,202.131 120.154,201.035 120.370 M156.469 123.552 C 156.447 123.864,156.249 124.549,156.029 125.075 C 155.809 125.602,155.643 126.306,155.660 126.640 C 155.688 127.178,155.705 127.187,155.812 126.716 C 155.878 126.422,156.112 125.789,156.331 125.307 C 156.550 124.826,156.680 124.106,156.619 123.708 C 156.538 123.175,156.498 123.134,156.469 123.552 M155.319 127.991 C 155.132 128.902,155.677 129.265,157.144 129.207 L 158.161 129.167 156.963 129.007 C 155.891 128.864,155.750 128.764,155.618 128.048 L 155.471 127.249 155.319 127.991 M195.948 140.107 C 195.666 140.363,195.279 141.053,195.089 141.639 C 194.898 142.225,194.584 143.065,194.391 143.504 C 194.085 144.202,193.586 145.952,193.062 148.168 L 192.905 148.834 193.308 148.168 C 193.530 147.801,193.793 146.962,193.893 146.302 C 193.992 145.643,194.291 144.671,194.557 144.144 L 195.040 143.184 200.118 143.129 C 205.822 143.066,205.288 142.847,205.248 145.237 L 205.228 146.436 205.484 145.370 C 205.844 143.868,206.263 140.123,206.100 139.860 C 205.802 139.377,196.502 139.603,195.948 140.107 M151.552 142.087 C 151.287 143.013,150.898 144.327,150.685 145.006 C 150.473 145.685,150.304 146.464,150.309 146.738 C 150.323 147.449,151.366 144.452,151.366 143.701 C 151.366 143.359,151.553 142.716,151.782 142.274 C 152.010 141.832,152.160 141.230,152.115 140.936 C 152.068 140.636,151.822 141.138,151.552 142.087 M218.813 144.912 C 218.613 145.393,218.516 145.853,218.597 145.934 C 218.825 146.163,219.365 144.997,219.266 144.490 C 219.204 144.177,219.065 144.307,218.813 144.912 M204.723 147.169 C 204.561 147.499,204.347 148.308,204.249 148.967 C 204.151 149.627,203.972 150.289,203.851 150.440 C 203.731 150.590,203.568 151.369,203.491 152.172 C 203.380 153.312,203.399 153.427,203.574 152.698 C 204.143 150.337,204.718 148.238,204.981 147.560 C 205.334 146.649,205.132 146.343,204.723 147.169 M217.960 148.335 C 217.725 149.196,217.390 150.440,217.216 151.099 C 217.041 151.759,216.830 152.538,216.747 152.831 L 216.595 153.364 216.991 152.831 C 217.210 152.538,217.472 151.759,217.575 151.099 C 217.677 150.440,217.944 149.403,218.166 148.796 C 218.389 148.190,218.530 147.485,218.479 147.232 C 218.429 146.978,218.195 147.475,217.960 148.335 M149.811 148.660 C 149.620 149.297,149.516 149.871,149.579 149.935 C 149.782 150.138,150.351 148.496,150.253 147.989 C 150.194 147.685,150.028 147.938,149.811 148.660 M149.003 151.566 C 148.827 152.262,148.525 153.491,148.331 154.297 C 148.138 155.103,147.892 156.003,147.785 156.296 C 147.600 156.805,147.609 156.807,147.991 156.342 C 148.210 156.074,148.471 155.265,148.570 154.543 C 148.670 153.822,148.853 153.169,148.977 153.092 C 149.228 152.937,149.635 150.612,149.444 150.421 C 149.378 150.355,149.179 150.870,149.003 151.566 M202.808 154.280 C 202.656 154.563,202.544 155.133,202.559 155.545 L 202.586 156.296 202.792 155.496 C 202.906 155.057,203.086 154.487,203.193 154.231 C 203.458 153.598,203.152 153.637,202.808 154.280 M216.056 155.268 C 215.799 156.141,215.590 157.092,215.590 157.382 C 215.590 159.021,215.300 159.094,208.788 159.094 C 202.110 159.094,202.103 159.092,202.415 157.184 L 202.560 156.296 202.141 157.204 C 201.191 159.266,201.415 159.339,208.813 159.371 C 215.422 159.399,215.476 159.387,215.734 157.801 C 215.821 157.266,216.074 156.396,216.297 155.867 C 216.520 155.338,216.662 154.630,216.612 154.294 C 216.550 153.866,216.382 154.161,216.056 155.268 M136.126 169.953 C 138.370 169.998,141.968 169.997,144.120 169.953 C 146.273 169.908,144.437 169.871,140.040 169.872 C 135.643 169.872,133.881 169.908,136.126 169.953 M196.736 169.953 C 201.829 169.994,210.163 169.994,215.256 169.953 C 220.350 169.913,216.183 169.880,205.996 169.880 C 195.809 169.880,191.642 169.913,196.736 169.953 M264.290 169.946 C 264.767 170.005,265.546 170.005,266.023 169.946 C 266.499 169.887,266.109 169.839,265.157 169.839 C 264.204 169.839,263.814 169.887,264.290 169.946 M146.236 176.874 C 146.672 177.023,146.658 177.972,146.206 178.837 C 146.008 179.216,145.693 180.356,145.505 181.369 C 145.318 182.382,145.017 183.511,144.836 183.877 C 144.655 184.244,144.303 185.503,144.053 186.676 C 143.662 188.508,141.970 194.938,141.564 196.136 C 140.982 197.852,139.966 202.377,140.091 202.702 C 140.350 203.375,141.225 203.514,144.704 203.433 C 147.903 203.359,153.365 203.665,155.293 204.027 L 156.215 204.200 156.028 205.696 C 155.777 207.710,154.189 211.059,153.486 211.059 C 153.093 211.059,152.965 211.243,152.965 211.802 C 152.965 212.211,152.747 212.961,152.482 213.468 C 152.216 213.975,151.209 215.889,150.244 217.722 C 149.279 219.554,148.402 221.467,148.295 221.974 C 148.189 222.480,147.637 223.882,147.069 225.088 C 146.501 226.295,146.036 227.590,146.036 227.965 C 146.036 228.359,145.884 228.648,145.678 228.648 C 145.113 228.648,144.465 229.520,143.956 230.966 C 143.699 231.697,143.162 232.683,142.763 233.157 C 142.365 233.631,142.039 234.145,142.039 234.300 C 142.039 234.455,141.619 235.405,141.106 236.412 C 140.593 237.418,140.173 238.525,140.173 238.872 C 140.173 239.218,139.956 239.788,139.691 240.137 C 139.425 240.487,139.064 241.270,138.889 241.878 C 138.713 242.486,138.402 243.047,138.197 243.126 C 137.993 243.204,137.741 243.666,137.639 244.153 C 137.536 244.639,137.084 245.636,136.635 246.369 C 134.850 249.277,133.255 252.668,133.094 253.891 C 132.991 254.679,132.692 255.417,132.307 255.829 C 131.966 256.196,131.648 256.851,131.600 257.285 C 131.535 257.865,131.341 258.114,130.863 258.225 C 130.469 258.318,130.145 258.635,130.037 259.035 C 129.940 259.397,129.561 260.353,129.195 261.159 C 128.274 263.187,127.114 266.048,127.114 266.289 C 127.117 266.940,129.400 266.451,129.822 265.710 C 130.068 265.278,130.537 264.894,130.880 264.845 C 131.600 264.742,132.202 262.675,131.667 262.140 C 131.258 261.731,131.310 260.552,131.777 259.657 C 131.996 259.238,132.176 258.624,132.177 258.294 C 132.179 257.573,132.709 257.494,132.890 258.187 C 133.196 259.358,134.231 258.547,134.559 256.878 C 134.728 256.018,134.982 255.243,135.122 255.156 C 135.262 255.069,135.376 254.669,135.376 254.267 C 135.376 252.879,137.909 248.909,138.801 248.899 C 138.896 248.898,139.005 248.275,139.042 247.515 C 139.079 246.754,139.248 246.047,139.416 245.943 C 139.585 245.839,139.817 245.053,139.933 244.196 C 140.085 243.075,140.297 242.536,140.691 242.273 C 141.027 242.048,141.239 241.618,141.239 241.159 C 141.239 240.604,141.383 240.388,141.797 240.325 C 142.371 240.237,142.449 240.056,143.888 235.457 C 144.207 234.439,144.694 233.448,144.970 233.254 C 145.298 233.025,145.501 232.510,145.555 231.774 C 145.632 230.711,145.679 230.651,146.390 230.726 L 147.144 230.806 146.966 229.386 L 146.789 227.965 147.668 227.898 C 148.613 227.826,148.957 227.494,148.963 226.645 C 148.966 226.350,149.218 225.451,149.524 224.646 C 149.831 223.842,150.208 222.705,150.363 222.119 C 150.517 221.532,151.046 220.553,151.538 219.942 C 152.029 219.331,152.432 218.637,152.432 218.401 C 152.432 218.164,152.854 217.548,153.371 217.031 C 153.887 216.515,154.236 215.972,154.145 215.826 C 153.894 215.419,154.263 214.257,154.644 214.257 C 155.580 214.257,159.033 204.756,158.337 204.097 C 158.240 204.005,157.369 203.671,156.400 203.355 C 154.301 202.669,153.098 201.617,153.815 201.094 C 154.062 200.913,154.405 200.207,154.577 199.525 C 154.779 198.721,155.066 198.229,155.393 198.125 C 155.669 198.037,155.896 197.752,155.896 197.492 C 155.896 197.231,156.136 196.801,156.429 196.536 C 156.722 196.270,156.962 195.828,156.962 195.552 C 156.962 195.003,157.447 194.152,158.662 192.574 C 159.097 192.007,159.494 191.179,159.543 190.733 C 159.592 190.287,159.767 189.759,159.932 189.560 C 160.241 189.188,160.629 187.702,160.874 185.960 C 161.023 184.898,161.515 184.335,163.042 183.479 C 163.987 182.948,164.032 182.855,164.331 180.805 C 164.808 177.531,165.218 177.677,155.863 177.789 C 149.017 177.872,148.173 177.835,147.730 177.436 C 147.458 177.191,146.935 176.938,146.569 176.875 C 146.203 176.812,146.053 176.811,146.236 176.874 " stroke="none" fill="#3b3b3b" fill-rule="evenodd"></path></g></svg>